<?xml version="1.0" encoding="utf-8"?>
<svg version="1.1" xmlns="http://www.w3.org/2000/svg" xmlns:xlink="http://www.w3.org/1999/xlink" height="17.514465870306594" width="62.8812464788698">
  <defs>
    <path id="path-0" opacity="1" d="M8.534281690140862,7.303991467576413 C8.207154929577483,6.065800341296545 7.074042253521141,5.585667235494508 5.563225352112687,5.585667235494508 C4.254126760563388,5.585667235494508 3.0458873239436683,6.1667559726958725 3.0458873239436683,7.076841296927952 C3.0458873239436683,7.98662969283238 3.700436619718316,8.466762798634434 4.858098591549305,8.694506825938186 L6.772056338028183,9.073090443685636 C9.515366197183116,9.603998293514975 11.60560563380284,10.46360580204741 11.60560563380284,13.116660409555942 C11.60560563380284,15.947575085323859 8.936535211267623,17.51446587030679 5.865507042253533,17.51446587030679 C2.542478873239443,17.51446587030679 0.3271267605633793,15.619172354948434 0,13.041240614334095 L2.9195915492957787,13.041240614334095 C3.1970281690140903,14.431162116040573 4.2032535211267685,15.239994880545689 5.965478873239448,15.239994880545689 C7.527169014084522,15.239994880545689 8.685422535211282,14.5828924914672 8.685422535211282,13.470895904436484 C8.685422535211282,12.358602389078127 7.678014084507058,11.85323037542625 6.343774647887335,11.60084129692795 L4.304704225352122,11.195831058020108 C2.013633802816903,10.741233788395533 0.22597183098591472,9.704953924914301 0.22597183098591472,7.2285716723545645 C0.22597183098591472,4.8270153583614 2.7938873239436672,3.2856604095559305 5.739507042253533,3.2856604095559305 C8.383140845070441,3.2856604095559305 10.799323943661994,4.5746262798631 11.35330985915495,7.303991467576413 L8.534281690140862,7.303991467576413Z"/>
    <path id="path-1" opacity="1" d="M13.793509859156663,0.9264163822525614 L16.78911549295947,0 L16.78911549295947,3.588972696245732 L19.50787605633975,3.588972696245732 L19.50787605633975,5.7624880546075055 L16.78911549295947,5.7624880546075055 L16.78911549295947,13.167583617747445 C16.78911549295947,14.557208191126287 17.116242253522856,14.885907849829351 18.40020000000172,14.885907849829351 L19.483030985917214,14.885907849829351 L19.483030985917214,17.18591467576793 L17.267383098593278,17.18591467576793 C14.372045070424264,17.18591467576793 13.793509859156663,16.402617747440274 13.793509859156663,13.622477815699657 L13.793509859156663,5.7624880546075055 L11.778988732396101,5.7624880546075055 L11.778988732396101,3.588972696245732 L13.793509859156663,3.588972696245732 L13.793509859156663,0.9264163822525614Z"/>
    <path id="path-2" opacity="1" d="M26.556599999997843,5.737367918088239 C28.444529577462617,5.737367918088239 30.131628169011947,7.278425938566215 30.131628169011947,10.412801365187079 C30.131628169011947,13.546879863481081 28.444529577462617,15.06269897610855 26.556599999997843,15.06269897610855 C24.668078873237164,15.06269897610855 22.98157183098374,13.546879863481081 22.98157183098374,10.412801365187079 C22.98157183098374,7.278425938566215 24.668078873237164,5.737367918088239 26.556599999997843,5.737367918088239 L26.556599999997843,5.737367918088239ZM26.556600000000344,3.2856307167230625 C23.258416901408737,3.2856307167230625 19.884811267605983,5.509326962456726 19.884811267605983,10.412801365187079 C19.884811267605983,15.315978839589661 23.258416901408737,17.514436177473726 26.556600000000344,17.514436177473726 C29.854191549296047,17.514436177473726 33.22779718309903,15.315978839589661 33.22779718309903,10.412801365187079 C33.22779718309903,5.509326962456726 29.854191549296047,3.2856307167230625 26.556600000000344,3.2856307167230625 L26.556600000000344,3.2856307167230625Z"/>
    <path id="path-3" opacity="1" d="M41.96199295774696,6.646918771330954 C41.45858450704273,6.5961440273036525 40.980316901408926,6.571202047781467 40.52719014084554,6.571202047781467 C38.63866901408497,6.571202047781467 37.55613380281735,7.329260068259281 37.55613380281735,10.05862525597259 L37.55613380281735,17.185795904436738 L34.5608239436624,17.185795904436738 L34.5608239436624,3.5888539249145834 L37.5058521126765,3.5888539249145834 L37.5058521126765,6.015055290102291 C38.236119718310306,4.4983453924913706 39.54521830985962,3.5888539249145834 41.18114788732442,3.5633180887371054 C41.408007042254,3.5633180887371054 41.73513380281738,3.5888539249145834 41.96199295774696,3.6140928327644066 L41.96199295774696,6.646918771330954Z"/>
    <path id="path-4" opacity="1" d="M46.1649507042216,17.185855290102314 L43.169345070418785,17.185855290102314 L43.169345070418785,3.5889133105801365 L46.1649507042216,3.5889133105801365 L46.1649507042216,5.484206825938493 C46.94549999999626,4.069046416382173 48.27973943661597,3.2857494880545346 50.09254225351739,3.2857494880545346 C52.182190140841335,3.2857494880545346 53.41557042253148,4.169705119453845 54.044978873235706,5.686415017064768 C55.202936619714585,3.968090784982863 56.78888028168641,3.2857494880545346 58.4505422535174,3.2857494880545346 C61.647866197179376,3.2857494880545346 62.88124647886953,5.408787030716644 62.88124647886953,8.643524232081834 L62.88124647886953,17.185855290102314 L59.8856408450667,17.185855290102314 L59.8856408450667,9.37604641638217 C59.8856408450667,7.531527645051115 59.70935915492586,5.737189761092069 57.49400704224979,5.737189761092069 C55.27835915492585,5.737189761092069 54.52324647886951,7.5062887372012925 54.52324647886951,9.958025938566482 L54.52324647886951,17.185855290102314 L51.52764084506669,17.185855290102314 L51.52764084506669,9.37604641638217 C51.52764084506669,7.531527645051115 51.35106338027795,5.737189761092069 49.13541549295401,5.737189761092069 C46.920063380277945,5.737189761092069 46.1649507042216,7.5062887372012925 46.1649507042216,9.958025938566482 L46.1649507042216,17.185855290102314Z"/>
  </defs>
  <g opacity="1">
    <g opacity="1">
      <use xlink:href="#path-0" fill="rgb(26,25,25)" fill-opacity="1"/>
    </g>
    <g opacity="1">
      <use xlink:href="#path-1" fill="rgb(26,25,25)" fill-opacity="1"/>
    </g>
    <g opacity="1">
      <use xlink:href="#path-2" fill="rgb(26,25,25)" fill-opacity="1"/>
    </g>
    <g opacity="1">
      <use xlink:href="#path-3" fill="rgb(26,25,25)" fill-opacity="1"/>
    </g>
    <g opacity="1">
      <use xlink:href="#path-4" fill="rgb(26,25,25)" fill-opacity="1"/>
    </g>
  </g>
</svg>