<?xml version="1.0" standalone="no"?>
<!DOCTYPE svg PUBLIC "-//W3C//DTD SVG 1.1//EN" "http://www.w3.org/Graphics/SVG/1.1/DTD/svg11.dtd" >
<svg>
<metadata>
Created by FontForge 20120731 at Fri Aug 23 00:24:37 2019
 By www
Copyright (c) 2018 Swiss Typefaces Sarl. All rights reserved.
</metadata>
<defs>
<font id="EuclidFlexTrial-Regular" horiz-adv-x="617" >
  <font-face 
    font-family="Euclid Flex Trial"
    font-weight="400"
    font-stretch="normal"
    units-per-em="1000"
    panose-1="2 11 5 4 0 0 0 0 0 0"
    ascent="806"
    descent="-194"
    x-height="500"
    cap-height="710"
    bbox="-199 -194 1007 858"
    underline-thickness="73"
    underline-position="-17"
    unicode-range="U+0020-2022"
  />
<missing-glyph horiz-adv-x="500" 
d="M0 0v710h500v-710h-500zM34 691l216 -320l216 320h-432zM19 682v-654l221 327zM261 355l220 -327v654zM34 19h432l-216 320z" />
    <glyph glyph-name=".notdef" horiz-adv-x="500" 
d="M0 0v710h500v-710h-500zM34 691l216 -320l216 320h-432zM19 682v-654l221 327zM261 355l220 -327v654zM34 19h432l-216 320z" />
    <glyph glyph-name=".null" horiz-adv-x="0" 
 />
    <glyph glyph-name="nonmarkingreturn" horiz-adv-x="333" 
 />
    <glyph glyph-name="space" unicode=" " horiz-adv-x="250" 
 />
    <glyph glyph-name="comma" unicode="," horiz-adv-x="258" 
d="M76 -142l43 142h-51v123h122v-124l-57 -141h-57z" />
    <glyph glyph-name="hyphen" unicode="-" horiz-adv-x="375" 
d="M66 229v89h243v-89h-243z" />
    <glyph glyph-name="period" unicode="." horiz-adv-x="250" 
d="M125 -8q-30 0 -52 21.5t-22 52.5t22 52.5t52 21.5t52 -21.5t22 -52.5t-22 -52.5t-52 -21.5z" />
    <glyph glyph-name="slash" unicode="/" horiz-adv-x="472" 
d="M24 0l344 710h81l-344 -710h-81z" />
    <glyph glyph-name="zero" unicode="0" horiz-adv-x="824" 
d="M412 -8q-153 0 -258.5 105t-105.5 258t105.5 258t258.5 105t258.5 -105t105.5 -258t-105.5 -258t-258.5 -105zM412 71q119 0 198 81.5t79 202.5t-79 202.5t-198 81.5t-197.5 -81.5t-78.5 -202.5t78.5 -202.5t197.5 -81.5z" />
    <glyph glyph-name="A" unicode="A" horiz-adv-x="678" 
d="M-7 0l346 718l346 -718h-98l-88 186h-320l-88 -186h-98zM219 270h240l-120 254z" />
    <glyph glyph-name="A" unicode="&#x104;" horiz-adv-x="678" 
d="M-7 0l346 718l346 -718h-98l-88 186h-320l-88 -186h-98zM219 270h240l-120 254z" />
    <glyph glyph-name="A" unicode="&#x102;" horiz-adv-x="678" 
d="M-7 0l346 718l346 -718h-98l-88 186h-320l-88 -186h-98zM219 270h240l-120 254z" />
    <glyph glyph-name="A" unicode="&#x100;" horiz-adv-x="678" 
d="M-7 0l346 718l346 -718h-98l-88 186h-320l-88 -186h-98zM219 270h240l-120 254z" />
    <glyph glyph-name="A" unicode="&#xc6;" horiz-adv-x="678" 
d="M-7 0l346 718l346 -718h-98l-88 186h-320l-88 -186h-98zM219 270h240l-120 254z" />
    <glyph glyph-name="A" unicode="&#xc5;" horiz-adv-x="678" 
d="M-7 0l346 718l346 -718h-98l-88 186h-320l-88 -186h-98zM219 270h240l-120 254z" />
    <glyph glyph-name="A" unicode="&#xc4;" horiz-adv-x="678" 
d="M-7 0l346 718l346 -718h-98l-88 186h-320l-88 -186h-98zM219 270h240l-120 254z" />
    <glyph glyph-name="A" unicode="&#xc3;" horiz-adv-x="678" 
d="M-7 0l346 718l346 -718h-98l-88 186h-320l-88 -186h-98zM219 270h240l-120 254z" />
    <glyph glyph-name="A" unicode="&#xc2;" horiz-adv-x="678" 
d="M-7 0l346 718l346 -718h-98l-88 186h-320l-88 -186h-98zM219 270h240l-120 254z" />
    <glyph glyph-name="A" unicode="&#xc1;" horiz-adv-x="678" 
d="M-7 0l346 718l346 -718h-98l-88 186h-320l-88 -186h-98zM219 270h240l-120 254z" />
    <glyph glyph-name="A" unicode="&#xc0;" horiz-adv-x="678" 
d="M-7 0l346 718l346 -718h-98l-88 186h-320l-88 -186h-98zM219 270h240l-120 254z" />
    <glyph glyph-name="B" unicode="B" horiz-adv-x="632" 
d="M95 0v710h237q99 0 154 -53t55 -132q0 -98 -74 -148q121 -47 121 -177q0 -95 -66.5 -147.5t-178.5 -52.5h-248zM186 404h144q55 0 87.5 31.5t32.5 79.5q0 47 -32.5 79t-87.5 32h-144v-222zM186 84h168q69 0 105.5 33t36.5 87t-36.5 88t-105.5 34h-168v-242z" />
    <glyph glyph-name="C" unicode="C" horiz-adv-x="722" 
d="M409 -8q-153 0 -258 104.5t-105 258.5t105 258.5t258 104.5q90 0 165.5 -38t118.5 -97l-65 -57q-36 49 -93 77t-126 28q-116 0 -193 -79.5t-77 -196.5t77 -196.5t193 -79.5q69 0 126 28t93 77l65 -57q-43 -59 -118.5 -97t-165.5 -38z" />
    <glyph glyph-name="C" unicode="&#x10c;" horiz-adv-x="722" 
d="M409 -8q-153 0 -258 104.5t-105 258.5t105 258.5t258 104.5q90 0 165.5 -38t118.5 -97l-65 -57q-36 49 -93 77t-126 28q-116 0 -193 -79.5t-77 -196.5t77 -196.5t193 -79.5q69 0 126 28t93 77l65 -57q-43 -59 -118.5 -97t-165.5 -38z" />
    <glyph glyph-name="C" unicode="&#x10a;" horiz-adv-x="722" 
d="M409 -8q-153 0 -258 104.5t-105 258.5t105 258.5t258 104.5q90 0 165.5 -38t118.5 -97l-65 -57q-36 49 -93 77t-126 28q-116 0 -193 -79.5t-77 -196.5t77 -196.5t193 -79.5q69 0 126 28t93 77l65 -57q-43 -59 -118.5 -97t-165.5 -38z" />
    <glyph glyph-name="C" unicode="&#x108;" horiz-adv-x="722" 
d="M409 -8q-153 0 -258 104.5t-105 258.5t105 258.5t258 104.5q90 0 165.5 -38t118.5 -97l-65 -57q-36 49 -93 77t-126 28q-116 0 -193 -79.5t-77 -196.5t77 -196.5t193 -79.5q69 0 126 28t93 77l65 -57q-43 -59 -118.5 -97t-165.5 -38z" />
    <glyph glyph-name="C" unicode="&#x106;" horiz-adv-x="722" 
d="M409 -8q-153 0 -258 104.5t-105 258.5t105 258.5t258 104.5q90 0 165.5 -38t118.5 -97l-65 -57q-36 49 -93 77t-126 28q-116 0 -193 -79.5t-77 -196.5t77 -196.5t193 -79.5q69 0 126 28t93 77l65 -57q-43 -59 -118.5 -97t-165.5 -38z" />
    <glyph glyph-name="C" unicode="&#xc7;" horiz-adv-x="722" 
d="M409 -8q-153 0 -258 104.5t-105 258.5t105 258.5t258 104.5q90 0 165.5 -38t118.5 -97l-65 -57q-36 49 -93 77t-126 28q-116 0 -193 -79.5t-77 -196.5t77 -196.5t193 -79.5q69 0 126 28t93 77l65 -57q-43 -59 -118.5 -97t-165.5 -38z" />
    <glyph glyph-name="D" unicode="D" horiz-adv-x="731" 
d="M95 0v710h211q164 0 271.5 -101t107.5 -254t-107.5 -254t-271.5 -101h-211zM186 85h120q128 0 207 76t79 194t-79 194t-207 76h-120v-540z" />
    <glyph glyph-name="D" unicode="&#x110;" horiz-adv-x="731" 
d="M95 0v710h211q164 0 271.5 -101t107.5 -254t-107.5 -254t-271.5 -101h-211zM186 85h120q128 0 207 76t79 194t-79 194t-207 76h-120v-540z" />
    <glyph glyph-name="D" unicode="&#x10e;" horiz-adv-x="731" 
d="M95 0v710h211q164 0 271.5 -101t107.5 -254t-107.5 -254t-271.5 -101h-211zM186 85h120q128 0 207 76t79 194t-79 194t-207 76h-120v-540z" />
    <glyph glyph-name="D" unicode="&#xd0;" horiz-adv-x="731" 
d="M95 0v710h211q164 0 271.5 -101t107.5 -254t-107.5 -254t-271.5 -101h-211zM186 85h120q128 0 207 76t79 194t-79 194t-207 76h-120v-540z" />
    <glyph glyph-name="E" unicode="E" horiz-adv-x="555" 
d="M95 0v710h410v-88h-319v-215h259v-88h-259v-231h319v-88h-410z" />
    <glyph glyph-name="E" unicode="&#x11a;" horiz-adv-x="555" 
d="M95 0v710h410v-88h-319v-215h259v-88h-259v-231h319v-88h-410z" />
    <glyph glyph-name="E" unicode="&#x118;" horiz-adv-x="555" 
d="M95 0v710h410v-88h-319v-215h259v-88h-259v-231h319v-88h-410z" />
    <glyph glyph-name="E" unicode="&#x116;" horiz-adv-x="555" 
d="M95 0v710h410v-88h-319v-215h259v-88h-259v-231h319v-88h-410z" />
    <glyph glyph-name="E" unicode="&#x114;" horiz-adv-x="555" 
d="M95 0v710h410v-88h-319v-215h259v-88h-259v-231h319v-88h-410z" />
    <glyph glyph-name="E" unicode="&#x112;" horiz-adv-x="555" 
d="M95 0v710h410v-88h-319v-215h259v-88h-259v-231h319v-88h-410z" />
    <glyph glyph-name="E" unicode="&#xcb;" horiz-adv-x="555" 
d="M95 0v710h410v-88h-319v-215h259v-88h-259v-231h319v-88h-410z" />
    <glyph glyph-name="E" unicode="&#xca;" horiz-adv-x="555" 
d="M95 0v710h410v-88h-319v-215h259v-88h-259v-231h319v-88h-410z" />
    <glyph glyph-name="E" unicode="&#xc9;" horiz-adv-x="555" 
d="M95 0v710h410v-88h-319v-215h259v-88h-259v-231h319v-88h-410z" />
    <glyph glyph-name="E" unicode="&#xc8;" horiz-adv-x="555" 
d="M95 0v710h410v-88h-319v-215h259v-88h-259v-231h319v-88h-410z" />
    <glyph glyph-name="F" unicode="F" horiz-adv-x="517" 
d="M95 0v710h398v-88h-307v-215h240v-88h-240v-319h-91z" />
    <glyph glyph-name="G" unicode="G" horiz-adv-x="742" 
d="M409 -8q-153 0 -258 104.5t-105 258.5t105 258.5t258 104.5q80 0 152.5 -32t115.5 -83l-65 -58q-79 86 -203 86q-116 0 -193 -79.5t-77 -196.5t77 -196.5t193 -79.5q113 0 181 53v187h-218l39 88h270v-317q-35 -40 -109.5 -69t-162.5 -29z" />
    <glyph glyph-name="G" unicode="&#x122;" horiz-adv-x="742" 
d="M409 -8q-153 0 -258 104.5t-105 258.5t105 258.5t258 104.5q80 0 152.5 -32t115.5 -83l-65 -58q-79 86 -203 86q-116 0 -193 -79.5t-77 -196.5t77 -196.5t193 -79.5q113 0 181 53v187h-218l39 88h270v-317q-35 -40 -109.5 -69t-162.5 -29z" />
    <glyph glyph-name="G" unicode="&#x120;" horiz-adv-x="742" 
d="M409 -8q-153 0 -258 104.5t-105 258.5t105 258.5t258 104.5q80 0 152.5 -32t115.5 -83l-65 -58q-79 86 -203 86q-116 0 -193 -79.5t-77 -196.5t77 -196.5t193 -79.5q113 0 181 53v187h-218l39 88h270v-317q-35 -40 -109.5 -69t-162.5 -29z" />
    <glyph glyph-name="G" unicode="&#x11e;" horiz-adv-x="742" 
d="M409 -8q-153 0 -258 104.5t-105 258.5t105 258.5t258 104.5q80 0 152.5 -32t115.5 -83l-65 -58q-79 86 -203 86q-116 0 -193 -79.5t-77 -196.5t77 -196.5t193 -79.5q113 0 181 53v187h-218l39 88h270v-317q-35 -40 -109.5 -69t-162.5 -29z" />
    <glyph glyph-name="G" unicode="&#x11c;" horiz-adv-x="742" 
d="M409 -8q-153 0 -258 104.5t-105 258.5t105 258.5t258 104.5q80 0 152.5 -32t115.5 -83l-65 -58q-79 86 -203 86q-116 0 -193 -79.5t-77 -196.5t77 -196.5t193 -79.5q113 0 181 53v187h-218l39 88h270v-317q-35 -40 -109.5 -69t-162.5 -29z" />
    <glyph glyph-name="H" unicode="H" horiz-adv-x="764" 
d="M95 0v710h91v-303h392v303h91v-710h-91v319h-392v-319h-91z" />
    <glyph glyph-name="H" unicode="&#x126;" horiz-adv-x="764" 
d="M95 0v710h91v-303h392v303h91v-710h-91v319h-392v-319h-91z" />
    <glyph glyph-name="H" unicode="&#x124;" horiz-adv-x="764" 
d="M95 0v710h91v-303h392v303h91v-710h-91v319h-392v-319h-91z" />
    <glyph glyph-name="I" unicode="I" horiz-adv-x="281" 
d="M95 0v710h91v-710h-91z" />
    <glyph glyph-name="I" unicode="&#x1eca;" horiz-adv-x="281" 
d="M95 0v710h91v-710h-91z" />
    <glyph glyph-name="I" unicode="&#x130;" horiz-adv-x="281" 
d="M95 0v710h91v-710h-91z" />
    <glyph glyph-name="I" unicode="&#x12e;" horiz-adv-x="281" 
d="M95 0v710h91v-710h-91z" />
    <glyph glyph-name="I" unicode="&#x12c;" horiz-adv-x="281" 
d="M95 0v710h91v-710h-91z" />
    <glyph glyph-name="I" unicode="&#x12a;" horiz-adv-x="281" 
d="M95 0v710h91v-710h-91z" />
    <glyph glyph-name="I" unicode="&#x128;" horiz-adv-x="281" 
d="M95 0v710h91v-710h-91z" />
    <glyph glyph-name="I" unicode="&#xcf;" horiz-adv-x="281" 
d="M95 0v710h91v-710h-91z" />
    <glyph glyph-name="I" unicode="&#xce;" horiz-adv-x="281" 
d="M95 0v710h91v-710h-91z" />
    <glyph glyph-name="I" unicode="&#xcd;" horiz-adv-x="281" 
d="M95 0v710h91v-710h-91z" />
    <glyph glyph-name="I" unicode="&#xcc;" horiz-adv-x="281" 
d="M95 0v710h91v-710h-91z" />
    <glyph glyph-name="J" unicode="J" horiz-adv-x="523" 
d="M228 -8q-89 0 -148 55t-59 151h91q0 -58 32.5 -88.5t82.5 -30.5q53 0 85 30.5t32 88.5v512h91v-518q0 -95 -59.5 -147.5t-147.5 -52.5z" />
    <glyph glyph-name="J" unicode="&#x134;" horiz-adv-x="523" 
d="M228 -8q-89 0 -148 55t-59 151h91q0 -58 32.5 -88.5t82.5 -30.5q53 0 85 30.5t32 88.5v512h91v-518q0 -95 -59.5 -147.5t-147.5 -52.5z" />
    <glyph glyph-name="K" unicode="K" horiz-adv-x="641" 
d="M95 0v710h91v-356l324 356h112l-328 -361l355 -349h-121l-342 337v-337h-91z" />
    <glyph glyph-name="K" unicode="&#x136;" horiz-adv-x="641" 
d="M95 0v710h91v-356l324 356h112l-328 -361l355 -349h-121l-342 337v-337h-91z" />
    <glyph glyph-name="L" unicode="L" horiz-adv-x="515" 
d="M95 0v710h91v-621h311v-89h-402z" />
    <glyph glyph-name="L" unicode="&#x141;" horiz-adv-x="515" 
d="M95 0v710h91v-621h311v-89h-402z" />
    <glyph glyph-name="L" unicode="&#x13f;" horiz-adv-x="515" 
d="M95 0v710h91v-621h311v-89h-402z" />
    <glyph glyph-name="L" unicode="&#x13d;" horiz-adv-x="515" 
d="M95 0v710h91v-621h311v-89h-402z" />
    <glyph glyph-name="L" unicode="&#x13b;" horiz-adv-x="515" 
d="M95 0v710h91v-621h311v-89h-402z" />
    <glyph glyph-name="L" unicode="&#x139;" horiz-adv-x="515" 
d="M95 0v710h91v-621h311v-89h-402z" />
    <glyph glyph-name="M" unicode="M" horiz-adv-x="882" 
d="M95 0v718l346 -381l346 381v-718h-91v494l-255 -285l-255 285v-494h-91z" />
    <glyph glyph-name="N" unicode="N" horiz-adv-x="787" 
d="M692 -8l-506 513v-505h-91v718l506 -513v505h91v-718z" />
    <glyph glyph-name="N" unicode="&#x14a;" horiz-adv-x="787" 
d="M692 -8l-506 513v-505h-91v718l506 -513v505h91v-718z" />
    <glyph glyph-name="N" unicode="&#x147;" horiz-adv-x="787" 
d="M692 -8l-506 513v-505h-91v718l506 -513v505h91v-718z" />
    <glyph glyph-name="N" unicode="&#x145;" horiz-adv-x="787" 
d="M692 -8l-506 513v-505h-91v718l506 -513v505h91v-718z" />
    <glyph glyph-name="N" unicode="&#x143;" horiz-adv-x="787" 
d="M692 -8l-506 513v-505h-91v718l506 -513v505h91v-718z" />
    <glyph glyph-name="N" unicode="&#xd1;" horiz-adv-x="787" 
d="M692 -8l-506 513v-505h-91v718l506 -513v505h91v-718z" />
    <glyph glyph-name="O" unicode="O" horiz-adv-x="818" 
d="M409 -8q-153 0 -258 104.5t-105 258.5t105 258.5t258 104.5t258 -104.5t105 -258.5t-105 -258.5t-258 -104.5zM409 79q116 0 193 79.5t77 196.5t-77 196.5t-193 79.5t-193 -79.5t-77 -196.5t77 -196.5t193 -79.5z" />
    <glyph glyph-name="O" unicode="&#x1ecc;" horiz-adv-x="818" 
d="M409 -8q-153 0 -258 104.5t-105 258.5t105 258.5t258 104.5t258 -104.5t105 -258.5t-105 -258.5t-258 -104.5zM409 79q116 0 193 79.5t77 196.5t-77 196.5t-193 79.5t-193 -79.5t-77 -196.5t77 -196.5t193 -79.5z" />
    <glyph glyph-name="O" unicode="&#x152;" horiz-adv-x="818" 
d="M409 -8q-153 0 -258 104.5t-105 258.5t105 258.5t258 104.5t258 -104.5t105 -258.5t-105 -258.5t-258 -104.5zM409 79q116 0 193 79.5t77 196.5t-77 196.5t-193 79.5t-193 -79.5t-77 -196.5t77 -196.5t193 -79.5z" />
    <glyph glyph-name="O" unicode="&#x150;" horiz-adv-x="818" 
d="M409 -8q-153 0 -258 104.5t-105 258.5t105 258.5t258 104.5t258 -104.5t105 -258.5t-105 -258.5t-258 -104.5zM409 79q116 0 193 79.5t77 196.5t-77 196.5t-193 79.5t-193 -79.5t-77 -196.5t77 -196.5t193 -79.5z" />
    <glyph glyph-name="O" unicode="&#x14e;" horiz-adv-x="818" 
d="M409 -8q-153 0 -258 104.5t-105 258.5t105 258.5t258 104.5t258 -104.5t105 -258.5t-105 -258.5t-258 -104.5zM409 79q116 0 193 79.5t77 196.5t-77 196.5t-193 79.5t-193 -79.5t-77 -196.5t77 -196.5t193 -79.5z" />
    <glyph glyph-name="O" unicode="&#x14c;" horiz-adv-x="818" 
d="M409 -8q-153 0 -258 104.5t-105 258.5t105 258.5t258 104.5t258 -104.5t105 -258.5t-105 -258.5t-258 -104.5zM409 79q116 0 193 79.5t77 196.5t-77 196.5t-193 79.5t-193 -79.5t-77 -196.5t77 -196.5t193 -79.5z" />
    <glyph glyph-name="O" unicode="&#xd8;" horiz-adv-x="818" 
d="M409 -8q-153 0 -258 104.5t-105 258.5t105 258.5t258 104.5t258 -104.5t105 -258.5t-105 -258.5t-258 -104.5zM409 79q116 0 193 79.5t77 196.5t-77 196.5t-193 79.5t-193 -79.5t-77 -196.5t77 -196.5t193 -79.5z" />
    <glyph glyph-name="O" unicode="&#xd6;" horiz-adv-x="818" 
d="M409 -8q-153 0 -258 104.5t-105 258.5t105 258.5t258 104.5t258 -104.5t105 -258.5t-105 -258.5t-258 -104.5zM409 79q116 0 193 79.5t77 196.5t-77 196.5t-193 79.5t-193 -79.5t-77 -196.5t77 -196.5t193 -79.5z" />
    <glyph glyph-name="O" unicode="&#xd5;" horiz-adv-x="818" 
d="M409 -8q-153 0 -258 104.5t-105 258.5t105 258.5t258 104.5t258 -104.5t105 -258.5t-105 -258.5t-258 -104.5zM409 79q116 0 193 79.5t77 196.5t-77 196.5t-193 79.5t-193 -79.5t-77 -196.5t77 -196.5t193 -79.5z" />
    <glyph glyph-name="O" unicode="&#xd4;" horiz-adv-x="818" 
d="M409 -8q-153 0 -258 104.5t-105 258.5t105 258.5t258 104.5t258 -104.5t105 -258.5t-105 -258.5t-258 -104.5zM409 79q116 0 193 79.5t77 196.5t-77 196.5t-193 79.5t-193 -79.5t-77 -196.5t77 -196.5t193 -79.5z" />
    <glyph glyph-name="O" unicode="&#xd3;" horiz-adv-x="818" 
d="M409 -8q-153 0 -258 104.5t-105 258.5t105 258.5t258 104.5t258 -104.5t105 -258.5t-105 -258.5t-258 -104.5zM409 79q116 0 193 79.5t77 196.5t-77 196.5t-193 79.5t-193 -79.5t-77 -196.5t77 -196.5t193 -79.5z" />
    <glyph glyph-name="O" unicode="&#xd2;" horiz-adv-x="818" 
d="M409 -8q-153 0 -258 104.5t-105 258.5t105 258.5t258 104.5t258 -104.5t105 -258.5t-105 -258.5t-258 -104.5zM409 79q116 0 193 79.5t77 196.5t-77 196.5t-193 79.5t-193 -79.5t-77 -196.5t77 -196.5t193 -79.5z" />
    <glyph glyph-name="P" unicode="P" horiz-adv-x="574" 
d="M95 0v710h201q112 0 179 -58.5t67 -158.5q0 -99 -67 -158t-179 -59h-110v-276h-91zM186 360h107q76 0 116 34.5t40 98.5q0 63 -40 98t-116 35h-107v-266z" />
    <glyph glyph-name="P" unicode="&#xde;" horiz-adv-x="574" 
d="M95 0v710h201q112 0 179 -58.5t67 -158.5q0 -99 -67 -158t-179 -59h-110v-276h-91zM186 360h107q76 0 116 34.5t40 98.5q0 63 -40 98t-116 35h-107v-266z" />
    <glyph glyph-name="Q" unicode="Q" horiz-adv-x="835" 
d="M409 -8q-153 0 -258 104.5t-105 258.5t105 258.5t258 104.5t258 -104.5t105 -258.5q0 -121 -69 -217l91 -84l-58 -62l-91 84q-100 -84 -236 -84zM409 79q96 0 170 58l-93 86l58 62l91 -84q44 68 44 154q0 117 -77 196.5t-193 79.5t-193 -79.5t-77 -196.5t77 -196.5
t193 -79.5z" />
    <glyph glyph-name="R" unicode="R" horiz-adv-x="619" 
d="M95 0v710h211q104 0 166 -54.5t62 -145.5q0 -69 -41 -123t-128 -71l246 -316h-110l-237 310h-78v-310h-91zM186 391h114q69 0 104.5 30.5t35.5 86.5t-35.5 87t-104.5 31h-114v-235z" />
    <glyph glyph-name="R" unicode="&#x158;" horiz-adv-x="619" 
d="M95 0v710h211q104 0 166 -54.5t62 -145.5q0 -69 -41 -123t-128 -71l246 -316h-110l-237 310h-78v-310h-91zM186 391h114q69 0 104.5 30.5t35.5 86.5t-35.5 87t-104.5 31h-114v-235z" />
    <glyph glyph-name="R" unicode="&#x156;" horiz-adv-x="619" 
d="M95 0v710h211q104 0 166 -54.5t62 -145.5q0 -69 -41 -123t-128 -71l246 -316h-110l-237 310h-78v-310h-91zM186 391h114q69 0 104.5 30.5t35.5 86.5t-35.5 87t-104.5 31h-114v-235z" />
    <glyph glyph-name="R" unicode="&#x154;" horiz-adv-x="619" 
d="M95 0v710h211q104 0 166 -54.5t62 -145.5q0 -69 -41 -123t-128 -71l246 -316h-110l-237 310h-78v-310h-91zM186 391h114q69 0 104.5 30.5t35.5 86.5t-35.5 87t-104.5 31h-114v-235z" />
    <glyph glyph-name="S" unicode="S" horiz-adv-x="528" 
d="M263 -8q-74 0 -136 31t-95 79l69 60q28 -36 70 -59.5t91 -23.5q62 0 98 27t36 73q0 47 -28 76.5t-88 55.5l-65 28q-155 66 -155 201q0 78 62.5 128t144.5 50q124 0 199 -91l-64 -64q-57 68 -138 68q-47 0 -80 -25t-33 -68q0 -39 24.5 -67t80.5 -53l65 -28
q167 -73 167 -201q0 -88 -61 -142.5t-164 -54.5z" />
    <glyph glyph-name="S" unicode="&#x218;" horiz-adv-x="528" 
d="M263 -8q-74 0 -136 31t-95 79l69 60q28 -36 70 -59.5t91 -23.5q62 0 98 27t36 73q0 47 -28 76.5t-88 55.5l-65 28q-155 66 -155 201q0 78 62.5 128t144.5 50q124 0 199 -91l-64 -64q-57 68 -138 68q-47 0 -80 -25t-33 -68q0 -39 24.5 -67t80.5 -53l65 -28
q167 -73 167 -201q0 -88 -61 -142.5t-164 -54.5z" />
    <glyph glyph-name="S" unicode="&#x160;" horiz-adv-x="528" 
d="M263 -8q-74 0 -136 31t-95 79l69 60q28 -36 70 -59.5t91 -23.5q62 0 98 27t36 73q0 47 -28 76.5t-88 55.5l-65 28q-155 66 -155 201q0 78 62.5 128t144.5 50q124 0 199 -91l-64 -64q-57 68 -138 68q-47 0 -80 -25t-33 -68q0 -39 24.5 -67t80.5 -53l65 -28
q167 -73 167 -201q0 -88 -61 -142.5t-164 -54.5z" />
    <glyph glyph-name="S" unicode="&#x15e;" horiz-adv-x="528" 
d="M263 -8q-74 0 -136 31t-95 79l69 60q28 -36 70 -59.5t91 -23.5q62 0 98 27t36 73q0 47 -28 76.5t-88 55.5l-65 28q-155 66 -155 201q0 78 62.5 128t144.5 50q124 0 199 -91l-64 -64q-57 68 -138 68q-47 0 -80 -25t-33 -68q0 -39 24.5 -67t80.5 -53l65 -28
q167 -73 167 -201q0 -88 -61 -142.5t-164 -54.5z" />
    <glyph glyph-name="S" unicode="&#x15c;" horiz-adv-x="528" 
d="M263 -8q-74 0 -136 31t-95 79l69 60q28 -36 70 -59.5t91 -23.5q62 0 98 27t36 73q0 47 -28 76.5t-88 55.5l-65 28q-155 66 -155 201q0 78 62.5 128t144.5 50q124 0 199 -91l-64 -64q-57 68 -138 68q-47 0 -80 -25t-33 -68q0 -39 24.5 -67t80.5 -53l65 -28
q167 -73 167 -201q0 -88 -61 -142.5t-164 -54.5z" />
    <glyph glyph-name="S" unicode="&#x15a;" horiz-adv-x="528" 
d="M263 -8q-74 0 -136 31t-95 79l69 60q28 -36 70 -59.5t91 -23.5q62 0 98 27t36 73q0 47 -28 76.5t-88 55.5l-65 28q-155 66 -155 201q0 78 62.5 128t144.5 50q124 0 199 -91l-64 -64q-57 68 -138 68q-47 0 -80 -25t-33 -68q0 -39 24.5 -67t80.5 -53l65 -28
q167 -73 167 -201q0 -88 -61 -142.5t-164 -54.5z" />
    <glyph glyph-name="T" unicode="T" horiz-adv-x="526" 
d="M217 0v622h-201v88h494v-88h-202v-622h-91z" />
    <glyph glyph-name="T" unicode="&#x21a;" horiz-adv-x="526" 
d="M217 0v622h-201v88h494v-88h-202v-622h-91z" />
    <glyph glyph-name="T" unicode="&#x166;" horiz-adv-x="526" 
d="M217 0v622h-201v88h494v-88h-202v-622h-91z" />
    <glyph glyph-name="T" unicode="&#x164;" horiz-adv-x="526" 
d="M217 0v622h-201v88h494v-88h-202v-622h-91z" />
    <glyph glyph-name="T" unicode="&#x162;" horiz-adv-x="526" 
d="M217 0v622h-201v88h494v-88h-202v-622h-91z" />
    <glyph glyph-name="U" unicode="U" horiz-adv-x="738" 
d="M369 -8q-126 0 -204.5 75t-78.5 203v440h91v-444q0 -90 52 -138.5t140 -48.5t140 48.5t52 138.5v444h91v-440q0 -129 -78 -203.5t-205 -74.5z" />
    <glyph glyph-name="U" unicode="&#x1ee4;" horiz-adv-x="738" 
d="M369 -8q-126 0 -204.5 75t-78.5 203v440h91v-444q0 -90 52 -138.5t140 -48.5t140 48.5t52 138.5v444h91v-440q0 -129 -78 -203.5t-205 -74.5z" />
    <glyph glyph-name="U" unicode="&#x172;" horiz-adv-x="738" 
d="M369 -8q-126 0 -204.5 75t-78.5 203v440h91v-444q0 -90 52 -138.5t140 -48.5t140 48.5t52 138.5v444h91v-440q0 -129 -78 -203.5t-205 -74.5z" />
    <glyph glyph-name="U" unicode="&#x170;" horiz-adv-x="738" 
d="M369 -8q-126 0 -204.5 75t-78.5 203v440h91v-444q0 -90 52 -138.5t140 -48.5t140 48.5t52 138.5v444h91v-440q0 -129 -78 -203.5t-205 -74.5z" />
    <glyph glyph-name="U" unicode="&#x16e;" horiz-adv-x="738" 
d="M369 -8q-126 0 -204.5 75t-78.5 203v440h91v-444q0 -90 52 -138.5t140 -48.5t140 48.5t52 138.5v444h91v-440q0 -129 -78 -203.5t-205 -74.5z" />
    <glyph glyph-name="U" unicode="&#x16c;" horiz-adv-x="738" 
d="M369 -8q-126 0 -204.5 75t-78.5 203v440h91v-444q0 -90 52 -138.5t140 -48.5t140 48.5t52 138.5v444h91v-440q0 -129 -78 -203.5t-205 -74.5z" />
    <glyph glyph-name="U" unicode="&#x16a;" horiz-adv-x="738" 
d="M369 -8q-126 0 -204.5 75t-78.5 203v440h91v-444q0 -90 52 -138.5t140 -48.5t140 48.5t52 138.5v444h91v-440q0 -129 -78 -203.5t-205 -74.5z" />
    <glyph glyph-name="U" unicode="&#x168;" horiz-adv-x="738" 
d="M369 -8q-126 0 -204.5 75t-78.5 203v440h91v-444q0 -90 52 -138.5t140 -48.5t140 48.5t52 138.5v444h91v-440q0 -129 -78 -203.5t-205 -74.5z" />
    <glyph glyph-name="U" unicode="&#xdc;" horiz-adv-x="738" 
d="M369 -8q-126 0 -204.5 75t-78.5 203v440h91v-444q0 -90 52 -138.5t140 -48.5t140 48.5t52 138.5v444h91v-440q0 -129 -78 -203.5t-205 -74.5z" />
    <glyph glyph-name="U" unicode="&#xdb;" horiz-adv-x="738" 
d="M369 -8q-126 0 -204.5 75t-78.5 203v440h91v-444q0 -90 52 -138.5t140 -48.5t140 48.5t52 138.5v444h91v-440q0 -129 -78 -203.5t-205 -74.5z" />
    <glyph glyph-name="U" unicode="&#xda;" horiz-adv-x="738" 
d="M369 -8q-126 0 -204.5 75t-78.5 203v440h91v-444q0 -90 52 -138.5t140 -48.5t140 48.5t52 138.5v444h91v-440q0 -129 -78 -203.5t-205 -74.5z" />
    <glyph glyph-name="U" unicode="&#xd9;" horiz-adv-x="738" 
d="M369 -8q-126 0 -204.5 75t-78.5 203v440h91v-444q0 -90 52 -138.5t140 -48.5t140 48.5t52 138.5v444h91v-440q0 -129 -78 -203.5t-205 -74.5z" />
    <glyph glyph-name="V" unicode="V" horiz-adv-x="656" 
d="M328 -8l-328 718h100l228 -509l227 509h100z" />
    <glyph glyph-name="W" unicode="W" horiz-adv-x="889" 
d="M252 -8l-244 718h94l157 -474l185 482l186 -482l157 474h94l-244 -718l-193 500z" />
    <glyph glyph-name="W" unicode="&#x1e84;" horiz-adv-x="889" 
d="M252 -8l-244 718h94l157 -474l185 482l186 -482l157 474h94l-244 -718l-193 500z" />
    <glyph glyph-name="W" unicode="&#x1e82;" horiz-adv-x="889" 
d="M252 -8l-244 718h94l157 -474l185 482l186 -482l157 474h94l-244 -718l-193 500z" />
    <glyph glyph-name="W" unicode="&#x1e80;" horiz-adv-x="889" 
d="M252 -8l-244 718h94l157 -474l185 482l186 -482l157 474h94l-244 -718l-193 500z" />
    <glyph glyph-name="W" unicode="&#x174;" horiz-adv-x="889" 
d="M252 -8l-244 718h94l157 -474l185 482l186 -482l157 474h94l-244 -718l-193 500z" />
    <glyph glyph-name="X" unicode="X" horiz-adv-x="639" 
d="M6 0l256 362l-243 348h105l195 -279l195 279h105l-241 -348l255 -362h-103l-210 295l-208 -295h-106z" />
    <glyph glyph-name="Y" unicode="Y" horiz-adv-x="628" 
d="M268 0v301l-260 409h106l200 -319l200 319h106l-260 -409v-301h-92z" />
    <glyph glyph-name="Y" unicode="&#x1ef2;" horiz-adv-x="628" 
d="M268 0v301l-260 409h106l200 -319l200 319h106l-260 -409v-301h-92z" />
    <glyph glyph-name="Y" unicode="&#x232;" horiz-adv-x="628" 
d="M268 0v301l-260 409h106l200 -319l200 319h106l-260 -409v-301h-92z" />
    <glyph glyph-name="Y" unicode="&#x178;" horiz-adv-x="628" 
d="M268 0v301l-260 409h106l200 -319l200 319h106l-260 -409v-301h-92z" />
    <glyph glyph-name="Y" unicode="&#x176;" horiz-adv-x="628" 
d="M268 0v301l-260 409h106l200 -319l200 319h106l-260 -409v-301h-92z" />
    <glyph glyph-name="Y" unicode="&#xdd;" horiz-adv-x="628" 
d="M268 0v301l-260 409h106l200 -319l200 319h106l-260 -409v-301h-92z" />
    <glyph glyph-name="Z" unicode="Z" horiz-adv-x="593" 
d="M9 0l395 622h-352v88h508l-395 -622h397v-88h-553z" />
    <glyph glyph-name="Z" unicode="&#x17d;" horiz-adv-x="593" 
d="M9 0l395 622h-352v88h508l-395 -622h397v-88h-553z" />
    <glyph glyph-name="Z" unicode="&#x17b;" horiz-adv-x="593" 
d="M9 0l395 622h-352v88h508l-395 -622h397v-88h-553z" />
    <glyph glyph-name="Z" unicode="&#x179;" horiz-adv-x="593" 
d="M9 0l395 622h-352v88h508l-395 -622h397v-88h-553z" />
    <glyph glyph-name="a" unicode="a" 
d="M456 0v50q-64 -58 -159 -58q-110 0 -182.5 74.5t-72.5 183.5t72.5 183.5t182.5 74.5q95 0 159 -58v50h86v-500h-86zM299 73q52 0 93 22t64 59v192q-23 37 -64 59t-93 22q-73 0 -120.5 -51t-47.5 -126t47.5 -126t120.5 -51z" />
    <glyph glyph-name="a" unicode="&#x105;" 
d="M456 0v50q-64 -58 -159 -58q-110 0 -182.5 74.5t-72.5 183.5t72.5 183.5t182.5 74.5q95 0 159 -58v50h86v-500h-86zM299 73q52 0 93 22t64 59v192q-23 37 -64 59t-93 22q-73 0 -120.5 -51t-47.5 -126t47.5 -126t120.5 -51z" />
    <glyph glyph-name="a" unicode="&#x103;" 
d="M456 0v50q-64 -58 -159 -58q-110 0 -182.5 74.5t-72.5 183.5t72.5 183.5t182.5 74.5q95 0 159 -58v50h86v-500h-86zM299 73q52 0 93 22t64 59v192q-23 37 -64 59t-93 22q-73 0 -120.5 -51t-47.5 -126t47.5 -126t120.5 -51z" />
    <glyph glyph-name="a" unicode="&#x101;" 
d="M456 0v50q-64 -58 -159 -58q-110 0 -182.5 74.5t-72.5 183.5t72.5 183.5t182.5 74.5q95 0 159 -58v50h86v-500h-86zM299 73q52 0 93 22t64 59v192q-23 37 -64 59t-93 22q-73 0 -120.5 -51t-47.5 -126t47.5 -126t120.5 -51z" />
    <glyph glyph-name="a" unicode="&#xe6;" 
d="M456 0v50q-64 -58 -159 -58q-110 0 -182.5 74.5t-72.5 183.5t72.5 183.5t182.5 74.5q95 0 159 -58v50h86v-500h-86zM299 73q52 0 93 22t64 59v192q-23 37 -64 59t-93 22q-73 0 -120.5 -51t-47.5 -126t47.5 -126t120.5 -51z" />
    <glyph glyph-name="a" unicode="&#xe5;" 
d="M456 0v50q-64 -58 -159 -58q-110 0 -182.5 74.5t-72.5 183.5t72.5 183.5t182.5 74.5q95 0 159 -58v50h86v-500h-86zM299 73q52 0 93 22t64 59v192q-23 37 -64 59t-93 22q-73 0 -120.5 -51t-47.5 -126t47.5 -126t120.5 -51z" />
    <glyph glyph-name="a" unicode="&#xe4;" 
d="M456 0v50q-64 -58 -159 -58q-110 0 -182.5 74.5t-72.5 183.5t72.5 183.5t182.5 74.5q95 0 159 -58v50h86v-500h-86zM299 73q52 0 93 22t64 59v192q-23 37 -64 59t-93 22q-73 0 -120.5 -51t-47.5 -126t47.5 -126t120.5 -51z" />
    <glyph glyph-name="a" unicode="&#xe3;" 
d="M456 0v50q-64 -58 -159 -58q-110 0 -182.5 74.5t-72.5 183.5t72.5 183.5t182.5 74.5q95 0 159 -58v50h86v-500h-86zM299 73q52 0 93 22t64 59v192q-23 37 -64 59t-93 22q-73 0 -120.5 -51t-47.5 -126t47.5 -126t120.5 -51z" />
    <glyph glyph-name="a" unicode="&#xe2;" 
d="M456 0v50q-64 -58 -159 -58q-110 0 -182.5 74.5t-72.5 183.5t72.5 183.5t182.5 74.5q95 0 159 -58v50h86v-500h-86zM299 73q52 0 93 22t64 59v192q-23 37 -64 59t-93 22q-73 0 -120.5 -51t-47.5 -126t47.5 -126t120.5 -51z" />
    <glyph glyph-name="a" unicode="&#xe1;" 
d="M456 0v50q-64 -58 -159 -58q-110 0 -182.5 74.5t-72.5 183.5t72.5 183.5t182.5 74.5q95 0 159 -58v50h86v-500h-86zM299 73q52 0 93 22t64 59v192q-23 37 -64 59t-93 22q-73 0 -120.5 -51t-47.5 -126t47.5 -126t120.5 -51z" />
    <glyph glyph-name="a" unicode="&#xe0;" 
d="M456 0v50q-64 -58 -159 -58q-110 0 -182.5 74.5t-72.5 183.5t72.5 183.5t182.5 74.5q95 0 159 -58v50h86v-500h-86zM299 73q52 0 93 22t64 59v192q-23 37 -64 59t-93 22q-73 0 -120.5 -51t-47.5 -126t47.5 -126t120.5 -51z" />
    <glyph glyph-name="b" unicode="b" 
d="M75 0v710h86v-260q63 58 159 58q110 0 182.5 -74.5t72.5 -183.5t-72.5 -183.5t-182.5 -74.5q-96 0 -159 58v-50h-86zM318 427q-52 0 -93.5 -22.5t-63.5 -58.5v-192q22 -36 63.5 -58.5t93.5 -22.5q73 0 120.5 51t47.5 126t-47.5 126t-120.5 51z" />
    <glyph glyph-name="c" unicode="c" horiz-adv-x="517" 
d="M298 -8q-110 0 -183.5 74.5t-73.5 183.5t73.5 183.5t183.5 74.5q114 0 191 -79l-55 -60q-58 58 -136 58q-73 0 -120.5 -51t-47.5 -126t47.5 -126t120.5 -51q78 0 136 58l55 -60q-77 -79 -191 -79z" />
    <glyph glyph-name="c" unicode="&#x10d;" horiz-adv-x="517" 
d="M298 -8q-110 0 -183.5 74.5t-73.5 183.5t73.5 183.5t183.5 74.5q114 0 191 -79l-55 -60q-58 58 -136 58q-73 0 -120.5 -51t-47.5 -126t47.5 -126t120.5 -51q78 0 136 58l55 -60q-77 -79 -191 -79z" />
    <glyph glyph-name="c" unicode="&#x10b;" horiz-adv-x="517" 
d="M298 -8q-110 0 -183.5 74.5t-73.5 183.5t73.5 183.5t183.5 74.5q114 0 191 -79l-55 -60q-58 58 -136 58q-73 0 -120.5 -51t-47.5 -126t47.5 -126t120.5 -51q78 0 136 58l55 -60q-77 -79 -191 -79z" />
    <glyph glyph-name="c" unicode="&#x109;" horiz-adv-x="517" 
d="M298 -8q-110 0 -183.5 74.5t-73.5 183.5t73.5 183.5t183.5 74.5q114 0 191 -79l-55 -60q-58 58 -136 58q-73 0 -120.5 -51t-47.5 -126t47.5 -126t120.5 -51q78 0 136 58l55 -60q-77 -79 -191 -79z" />
    <glyph glyph-name="c" unicode="&#x107;" horiz-adv-x="517" 
d="M298 -8q-110 0 -183.5 74.5t-73.5 183.5t73.5 183.5t183.5 74.5q114 0 191 -79l-55 -60q-58 58 -136 58q-73 0 -120.5 -51t-47.5 -126t47.5 -126t120.5 -51q78 0 136 58l55 -60q-77 -79 -191 -79z" />
    <glyph glyph-name="c" unicode="&#xe7;" horiz-adv-x="517" 
d="M298 -8q-110 0 -183.5 74.5t-73.5 183.5t73.5 183.5t183.5 74.5q114 0 191 -79l-55 -60q-58 58 -136 58q-73 0 -120.5 -51t-47.5 -126t47.5 -126t120.5 -51q78 0 136 58l55 -60q-77 -79 -191 -79z" />
    <glyph glyph-name="d" unicode="d" 
d="M542 0h-86v50q-63 -58 -159 -58q-110 0 -182.5 74.5t-72.5 183.5t72.5 183.5t182.5 74.5q96 0 159 -58v260h86v-710zM299 427q-73 0 -120.5 -51t-47.5 -126t47.5 -126t120.5 -51q52 0 93.5 22.5t63.5 58.5v192q-22 36 -63.5 58.5t-93.5 22.5z" />
    <glyph glyph-name="d" unicode="&#x111;" 
d="M542 0h-86v50q-63 -58 -159 -58q-110 0 -182.5 74.5t-72.5 183.5t72.5 183.5t182.5 74.5q96 0 159 -58v260h86v-710zM299 427q-73 0 -120.5 -51t-47.5 -126t47.5 -126t120.5 -51q52 0 93.5 22.5t63.5 58.5v192q-22 36 -63.5 58.5t-93.5 22.5z" />
    <glyph glyph-name="d" unicode="&#x10f;" 
d="M542 0h-86v50q-63 -58 -159 -58q-110 0 -182.5 74.5t-72.5 183.5t72.5 183.5t182.5 74.5q96 0 159 -58v260h86v-710zM299 427q-73 0 -120.5 -51t-47.5 -126t47.5 -126t120.5 -51q52 0 93.5 22.5t63.5 58.5v192q-22 36 -63.5 58.5t-93.5 22.5z" />
    <glyph glyph-name="d" unicode="&#xf0;" 
d="M542 0h-86v50q-63 -58 -159 -58q-110 0 -182.5 74.5t-72.5 183.5t72.5 183.5t182.5 74.5q96 0 159 -58v260h86v-710zM299 427q-73 0 -120.5 -51t-47.5 -126t47.5 -126t120.5 -51q52 0 93.5 22.5t63.5 58.5v192q-22 36 -63.5 58.5t-93.5 22.5z" />
    <glyph glyph-name="e" unicode="e" horiz-adv-x="569" 
d="M298 -8q-110 0 -183.5 74.5t-73.5 183.5t73 183.5t178 74.5q111 0 177.5 -77.5t66.5 -201.5h-406q7 -70 55 -113t113 -43q86 0 146 60l55 -60q-77 -81 -201 -81zM287 429q-51 0 -94.5 -31.5t-57.5 -93.5h304q-9 60 -51 93t-101 32z" />
    <glyph glyph-name="e" unicode="&#x11b;" horiz-adv-x="569" 
d="M298 -8q-110 0 -183.5 74.5t-73.5 183.5t73 183.5t178 74.5q111 0 177.5 -77.5t66.5 -201.5h-406q7 -70 55 -113t113 -43q86 0 146 60l55 -60q-77 -81 -201 -81zM287 429q-51 0 -94.5 -31.5t-57.5 -93.5h304q-9 60 -51 93t-101 32z" />
    <glyph glyph-name="e" unicode="&#x119;" horiz-adv-x="569" 
d="M298 -8q-110 0 -183.5 74.5t-73.5 183.5t73 183.5t178 74.5q111 0 177.5 -77.5t66.5 -201.5h-406q7 -70 55 -113t113 -43q86 0 146 60l55 -60q-77 -81 -201 -81zM287 429q-51 0 -94.5 -31.5t-57.5 -93.5h304q-9 60 -51 93t-101 32z" />
    <glyph glyph-name="e" unicode="&#x117;" horiz-adv-x="569" 
d="M298 -8q-110 0 -183.5 74.5t-73.5 183.5t73 183.5t178 74.5q111 0 177.5 -77.5t66.5 -201.5h-406q7 -70 55 -113t113 -43q86 0 146 60l55 -60q-77 -81 -201 -81zM287 429q-51 0 -94.5 -31.5t-57.5 -93.5h304q-9 60 -51 93t-101 32z" />
    <glyph glyph-name="e" unicode="&#x115;" horiz-adv-x="569" 
d="M298 -8q-110 0 -183.5 74.5t-73.5 183.5t73 183.5t178 74.5q111 0 177.5 -77.5t66.5 -201.5h-406q7 -70 55 -113t113 -43q86 0 146 60l55 -60q-77 -81 -201 -81zM287 429q-51 0 -94.5 -31.5t-57.5 -93.5h304q-9 60 -51 93t-101 32z" />
    <glyph glyph-name="e" unicode="&#x113;" horiz-adv-x="569" 
d="M298 -8q-110 0 -183.5 74.5t-73.5 183.5t73 183.5t178 74.5q111 0 177.5 -77.5t66.5 -201.5h-406q7 -70 55 -113t113 -43q86 0 146 60l55 -60q-77 -81 -201 -81zM287 429q-51 0 -94.5 -31.5t-57.5 -93.5h304q-9 60 -51 93t-101 32z" />
    <glyph glyph-name="e" unicode="&#xeb;" horiz-adv-x="569" 
d="M298 -8q-110 0 -183.5 74.5t-73.5 183.5t73 183.5t178 74.5q111 0 177.5 -77.5t66.5 -201.5h-406q7 -70 55 -113t113 -43q86 0 146 60l55 -60q-77 -81 -201 -81zM287 429q-51 0 -94.5 -31.5t-57.5 -93.5h304q-9 60 -51 93t-101 32z" />
    <glyph glyph-name="e" unicode="&#xea;" horiz-adv-x="569" 
d="M298 -8q-110 0 -183.5 74.5t-73.5 183.5t73 183.5t178 74.5q111 0 177.5 -77.5t66.5 -201.5h-406q7 -70 55 -113t113 -43q86 0 146 60l55 -60q-77 -81 -201 -81zM287 429q-51 0 -94.5 -31.5t-57.5 -93.5h304q-9 60 -51 93t-101 32z" />
    <glyph glyph-name="e" unicode="&#xe9;" horiz-adv-x="569" 
d="M298 -8q-110 0 -183.5 74.5t-73.5 183.5t73 183.5t178 74.5q111 0 177.5 -77.5t66.5 -201.5h-406q7 -70 55 -113t113 -43q86 0 146 60l55 -60q-77 -81 -201 -81zM287 429q-51 0 -94.5 -31.5t-57.5 -93.5h304q-9 60 -51 93t-101 32z" />
    <glyph glyph-name="e" unicode="&#xe8;" horiz-adv-x="569" 
d="M298 -8q-110 0 -183.5 74.5t-73.5 183.5t73 183.5t178 74.5q111 0 177.5 -77.5t66.5 -201.5h-406q7 -70 55 -113t113 -43q86 0 146 60l55 -60q-77 -81 -201 -81zM287 429q-51 0 -94.5 -31.5t-57.5 -93.5h304q-9 60 -51 93t-101 32z" />
    <glyph glyph-name="f" unicode="f" horiz-adv-x="352" 
d="M113 0v422h-86v78h84q-37 35 -37 88t40.5 87.5t105.5 34.5h118v-78h-104q-34 0 -55 -16t-21 -47t21 -49t48 -20h111v-78h-139v-422h-86z" />
    <glyph glyph-name="g" unicode="g" horiz-adv-x="611" 
d="M291 -194q-122 0 -213 59l45 73q70 -52 171 -52q73 0 120.5 30t47.5 96q0 37 -13 63q-62 -60 -159 -60q-110 0 -178.5 70t-68.5 176t68.5 176.5t178.5 70.5q92 0 156 -59v51h86v-398q19 -50 19 -98q0 -100 -76 -149t-184 -49zM292 95q52 0 92.5 22.5t61.5 59.5v169
q-21 36 -61.5 58.5t-92.5 22.5q-71 0 -115.5 -47t-44.5 -119q0 -71 45 -118.5t115 -47.5z" />
    <glyph glyph-name="g" unicode="&#x123;" horiz-adv-x="611" 
d="M291 -194q-122 0 -213 59l45 73q70 -52 171 -52q73 0 120.5 30t47.5 96q0 37 -13 63q-62 -60 -159 -60q-110 0 -178.5 70t-68.5 176t68.5 176.5t178.5 70.5q92 0 156 -59v51h86v-398q19 -50 19 -98q0 -100 -76 -149t-184 -49zM292 95q52 0 92.5 22.5t61.5 59.5v169
q-21 36 -61.5 58.5t-92.5 22.5q-71 0 -115.5 -47t-44.5 -119q0 -71 45 -118.5t115 -47.5z" />
    <glyph glyph-name="g" unicode="&#x121;" horiz-adv-x="611" 
d="M291 -194q-122 0 -213 59l45 73q70 -52 171 -52q73 0 120.5 30t47.5 96q0 37 -13 63q-62 -60 -159 -60q-110 0 -178.5 70t-68.5 176t68.5 176.5t178.5 70.5q92 0 156 -59v51h86v-398q19 -50 19 -98q0 -100 -76 -149t-184 -49zM292 95q52 0 92.5 22.5t61.5 59.5v169
q-21 36 -61.5 58.5t-92.5 22.5q-71 0 -115.5 -47t-44.5 -119q0 -71 45 -118.5t115 -47.5z" />
    <glyph glyph-name="g" unicode="&#x11f;" horiz-adv-x="611" 
d="M291 -194q-122 0 -213 59l45 73q70 -52 171 -52q73 0 120.5 30t47.5 96q0 37 -13 63q-62 -60 -159 -60q-110 0 -178.5 70t-68.5 176t68.5 176.5t178.5 70.5q92 0 156 -59v51h86v-398q19 -50 19 -98q0 -100 -76 -149t-184 -49zM292 95q52 0 92.5 22.5t61.5 59.5v169
q-21 36 -61.5 58.5t-92.5 22.5q-71 0 -115.5 -47t-44.5 -119q0 -71 45 -118.5t115 -47.5z" />
    <glyph glyph-name="g" unicode="&#x11d;" horiz-adv-x="611" 
d="M291 -194q-122 0 -213 59l45 73q70 -52 171 -52q73 0 120.5 30t47.5 96q0 37 -13 63q-62 -60 -159 -60q-110 0 -178.5 70t-68.5 176t68.5 176.5t178.5 70.5q92 0 156 -59v51h86v-398q19 -50 19 -98q0 -100 -76 -149t-184 -49zM292 95q52 0 92.5 22.5t61.5 59.5v169
q-21 36 -61.5 58.5t-92.5 22.5q-71 0 -115.5 -47t-44.5 -119q0 -71 45 -118.5t115 -47.5z" />
    <glyph glyph-name="h" unicode="h" horiz-adv-x="578" 
d="M75 0v710h86v-267q51 65 155 65q86 0 139.5 -55.5t53.5 -147.5v-305h-86v300q0 56 -34 91.5t-92 35.5q-52 0 -87 -27.5t-49 -76.5v-323h-86z" />
    <glyph glyph-name="h" unicode="&#x127;" horiz-adv-x="578" 
d="M75 0v710h86v-267q51 65 155 65q86 0 139.5 -55.5t53.5 -147.5v-305h-86v300q0 56 -34 91.5t-92 35.5q-52 0 -87 -27.5t-49 -76.5v-323h-86z" />
    <glyph glyph-name="h" unicode="&#x125;" horiz-adv-x="578" 
d="M75 0v710h86v-267q51 65 155 65q86 0 139.5 -55.5t53.5 -147.5v-305h-86v300q0 56 -34 91.5t-92 35.5q-52 0 -87 -27.5t-49 -76.5v-323h-86z" />
    <glyph glyph-name="i" unicode="i" horiz-adv-x="236" 
d="M75 609q-19 17 -19 46q0 26 18 44.5t44 18.5t44 -18.5t18 -44.5q0 -29 -19 -46h-86zM75 0v500h86v-500h-86z" />
    <glyph glyph-name="i" unicode="&#x1ecb;" horiz-adv-x="236" 
d="M75 609q-19 17 -19 46q0 26 18 44.5t44 18.5t44 -18.5t18 -44.5q0 -29 -19 -46h-86zM75 0v500h86v-500h-86z" />
    <glyph glyph-name="i" unicode="&#x131;" horiz-adv-x="236" 
d="M75 609q-19 17 -19 46q0 26 18 44.5t44 18.5t44 -18.5t18 -44.5q0 -29 -19 -46h-86zM75 0v500h86v-500h-86z" />
    <glyph glyph-name="i" unicode="&#x12f;" horiz-adv-x="236" 
d="M75 609q-19 17 -19 46q0 26 18 44.5t44 18.5t44 -18.5t18 -44.5q0 -29 -19 -46h-86zM75 0v500h86v-500h-86z" />
    <glyph glyph-name="i" unicode="&#x12d;" horiz-adv-x="236" 
d="M75 609q-19 17 -19 46q0 26 18 44.5t44 18.5t44 -18.5t18 -44.5q0 -29 -19 -46h-86zM75 0v500h86v-500h-86z" />
    <glyph glyph-name="i" unicode="&#x12b;" horiz-adv-x="236" 
d="M75 609q-19 17 -19 46q0 26 18 44.5t44 18.5t44 -18.5t18 -44.5q0 -29 -19 -46h-86zM75 0v500h86v-500h-86z" />
    <glyph glyph-name="i" unicode="&#x129;" horiz-adv-x="236" 
d="M75 609q-19 17 -19 46q0 26 18 44.5t44 18.5t44 -18.5t18 -44.5q0 -29 -19 -46h-86zM75 0v500h86v-500h-86z" />
    <glyph glyph-name="i" unicode="&#xef;" horiz-adv-x="236" 
d="M75 609q-19 17 -19 46q0 26 18 44.5t44 18.5t44 -18.5t18 -44.5q0 -29 -19 -46h-86zM75 0v500h86v-500h-86z" />
    <glyph glyph-name="i" unicode="&#xee;" horiz-adv-x="236" 
d="M75 609q-19 17 -19 46q0 26 18 44.5t44 18.5t44 -18.5t18 -44.5q0 -29 -19 -46h-86zM75 0v500h86v-500h-86z" />
    <glyph glyph-name="i" unicode="&#xed;" horiz-adv-x="236" 
d="M75 609q-19 17 -19 46q0 26 18 44.5t44 18.5t44 -18.5t18 -44.5q0 -29 -19 -46h-86zM75 0v500h86v-500h-86z" />
    <glyph glyph-name="i" unicode="&#xec;" horiz-adv-x="236" 
d="M75 609q-19 17 -19 46q0 26 18 44.5t44 18.5t44 -18.5t18 -44.5q0 -29 -19 -46h-86zM75 0v500h86v-500h-86z" />
    <glyph glyph-name="j" unicode="j" horiz-adv-x="244" 
d="M83 609q-19 17 -19 46q0 26 18 44.5t44 18.5t44 -18.5t18 -44.5q0 -29 -19 -46h-86zM-21 -184v78h30q40 0 57 20t17 60v526h86v-539q0 -71 -39 -108t-112 -37h-39z" />
    <glyph glyph-name="j" unicode="&#x237;" horiz-adv-x="244" 
d="M83 609q-19 17 -19 46q0 26 18 44.5t44 18.5t44 -18.5t18 -44.5q0 -29 -19 -46h-86zM-21 -184v78h30q40 0 57 20t17 60v526h86v-539q0 -71 -39 -108t-112 -37h-39z" />
    <glyph glyph-name="j" unicode="&#x135;" horiz-adv-x="244" 
d="M83 609q-19 17 -19 46q0 26 18 44.5t44 18.5t44 -18.5t18 -44.5q0 -29 -19 -46h-86zM-21 -184v78h30q40 0 57 20t17 60v526h86v-539q0 -71 -39 -108t-112 -37h-39z" />
    <glyph glyph-name="k" unicode="k" horiz-adv-x="512" 
d="M75 0v710h86v-436l221 226h113l-232 -235l255 -265h-116l-241 250v-250h-86z" />
    <glyph glyph-name="k" unicode="&#x137;" horiz-adv-x="512" 
d="M75 0v710h86v-436l221 226h113l-232 -235l255 -265h-116l-241 250v-250h-86z" />
    <glyph glyph-name="l" unicode="l" horiz-adv-x="236" 
d="M75 0v710h86v-710h-86z" />
    <glyph glyph-name="l" unicode="&#x142;" horiz-adv-x="236" 
d="M75 0v710h86v-710h-86z" />
    <glyph glyph-name="l" unicode="&#x140;" horiz-adv-x="236" 
d="M75 0v710h86v-710h-86z" />
    <glyph glyph-name="l" unicode="&#x13e;" horiz-adv-x="236" 
d="M75 0v710h86v-710h-86z" />
    <glyph glyph-name="l" unicode="&#x13c;" horiz-adv-x="236" 
d="M75 0v710h86v-710h-86z" />
    <glyph glyph-name="l" unicode="&#x13a;" horiz-adv-x="236" 
d="M75 0v710h86v-710h-86z" />
    <glyph glyph-name="m" unicode="m" horiz-adv-x="875" 
d="M398 0v300q0 56 -31 91.5t-84 35.5q-43 0 -75 -24.5t-47 -69.5v-333h-86v500h86v-55q51 63 141 63q100 0 151 -82q58 82 167 82q85 0 135.5 -55t50.5 -148v-305h-86v300q0 56 -30.5 91.5t-83.5 35.5q-91 0 -123 -101q1 -7 1 -21v-305h-86z" />
    <glyph glyph-name="n" unicode="n" horiz-adv-x="578" 
d="M75 0v500h86v-57q51 65 155 65q86 0 139.5 -55.5t53.5 -147.5v-305h-86v300q0 56 -34 91.5t-92 35.5q-52 0 -87 -27.5t-49 -76.5v-323h-86z" />
    <glyph glyph-name="n" unicode="&#x14b;" horiz-adv-x="578" 
d="M75 0v500h86v-57q51 65 155 65q86 0 139.5 -55.5t53.5 -147.5v-305h-86v300q0 56 -34 91.5t-92 35.5q-52 0 -87 -27.5t-49 -76.5v-323h-86z" />
    <glyph glyph-name="n" unicode="&#x148;" horiz-adv-x="578" 
d="M75 0v500h86v-57q51 65 155 65q86 0 139.5 -55.5t53.5 -147.5v-305h-86v300q0 56 -34 91.5t-92 35.5q-52 0 -87 -27.5t-49 -76.5v-323h-86z" />
    <glyph glyph-name="n" unicode="&#x146;" horiz-adv-x="578" 
d="M75 0v500h86v-57q51 65 155 65q86 0 139.5 -55.5t53.5 -147.5v-305h-86v300q0 56 -34 91.5t-92 35.5q-52 0 -87 -27.5t-49 -76.5v-323h-86z" />
    <glyph glyph-name="n" unicode="&#x144;" horiz-adv-x="578" 
d="M75 0v500h86v-57q51 65 155 65q86 0 139.5 -55.5t53.5 -147.5v-305h-86v300q0 56 -34 91.5t-92 35.5q-52 0 -87 -27.5t-49 -76.5v-323h-86z" />
    <glyph glyph-name="n" unicode="&#xf1;" horiz-adv-x="578" 
d="M75 0v500h86v-57q51 65 155 65q86 0 139.5 -55.5t53.5 -147.5v-305h-86v300q0 56 -34 91.5t-92 35.5q-52 0 -87 -27.5t-49 -76.5v-323h-86z" />
    <glyph glyph-name="o" unicode="o" horiz-adv-x="602" 
d="M301 -8q-112 0 -186 74.5t-74 183.5t74 183.5t186 74.5t185.5 -74.5t73.5 -183.5t-73.5 -183.5t-185.5 -74.5zM301 73q75 0 122.5 50.5t47.5 126.5t-47.5 126.5t-122.5 50.5t-123 -51t-48 -126t48 -126t123 -51z" />
    <glyph glyph-name="o" unicode="&#x1ecd;" horiz-adv-x="602" 
d="M301 -8q-112 0 -186 74.5t-74 183.5t74 183.5t186 74.5t185.5 -74.5t73.5 -183.5t-73.5 -183.5t-185.5 -74.5zM301 73q75 0 122.5 50.5t47.5 126.5t-47.5 126.5t-122.5 50.5t-123 -51t-48 -126t48 -126t123 -51z" />
    <glyph glyph-name="o" unicode="&#x153;" horiz-adv-x="602" 
d="M301 -8q-112 0 -186 74.5t-74 183.5t74 183.5t186 74.5t185.5 -74.5t73.5 -183.5t-73.5 -183.5t-185.5 -74.5zM301 73q75 0 122.5 50.5t47.5 126.5t-47.5 126.5t-122.5 50.5t-123 -51t-48 -126t48 -126t123 -51z" />
    <glyph glyph-name="o" unicode="&#x151;" horiz-adv-x="602" 
d="M301 -8q-112 0 -186 74.5t-74 183.5t74 183.5t186 74.5t185.5 -74.5t73.5 -183.5t-73.5 -183.5t-185.5 -74.5zM301 73q75 0 122.5 50.5t47.5 126.5t-47.5 126.5t-122.5 50.5t-123 -51t-48 -126t48 -126t123 -51z" />
    <glyph glyph-name="o" unicode="&#x14f;" horiz-adv-x="602" 
d="M301 -8q-112 0 -186 74.5t-74 183.5t74 183.5t186 74.5t185.5 -74.5t73.5 -183.5t-73.5 -183.5t-185.5 -74.5zM301 73q75 0 122.5 50.5t47.5 126.5t-47.5 126.5t-122.5 50.5t-123 -51t-48 -126t48 -126t123 -51z" />
    <glyph glyph-name="o" unicode="&#x14d;" horiz-adv-x="602" 
d="M301 -8q-112 0 -186 74.5t-74 183.5t74 183.5t186 74.5t185.5 -74.5t73.5 -183.5t-73.5 -183.5t-185.5 -74.5zM301 73q75 0 122.5 50.5t47.5 126.5t-47.5 126.5t-122.5 50.5t-123 -51t-48 -126t48 -126t123 -51z" />
    <glyph glyph-name="o" unicode="&#xf8;" horiz-adv-x="602" 
d="M301 -8q-112 0 -186 74.5t-74 183.5t74 183.5t186 74.5t185.5 -74.5t73.5 -183.5t-73.5 -183.5t-185.5 -74.5zM301 73q75 0 122.5 50.5t47.5 126.5t-47.5 126.5t-122.5 50.5t-123 -51t-48 -126t48 -126t123 -51z" />
    <glyph glyph-name="o" unicode="&#xf6;" horiz-adv-x="602" 
d="M301 -8q-112 0 -186 74.5t-74 183.5t74 183.5t186 74.5t185.5 -74.5t73.5 -183.5t-73.5 -183.5t-185.5 -74.5zM301 73q75 0 122.5 50.5t47.5 126.5t-47.5 126.5t-122.5 50.5t-123 -51t-48 -126t48 -126t123 -51z" />
    <glyph glyph-name="o" unicode="&#xf5;" horiz-adv-x="602" 
d="M301 -8q-112 0 -186 74.5t-74 183.5t74 183.5t186 74.5t185.5 -74.5t73.5 -183.5t-73.5 -183.5t-185.5 -74.5zM301 73q75 0 122.5 50.5t47.5 126.5t-47.5 126.5t-122.5 50.5t-123 -51t-48 -126t48 -126t123 -51z" />
    <glyph glyph-name="o" unicode="&#xf4;" horiz-adv-x="602" 
d="M301 -8q-112 0 -186 74.5t-74 183.5t74 183.5t186 74.5t185.5 -74.5t73.5 -183.5t-73.5 -183.5t-185.5 -74.5zM301 73q75 0 122.5 50.5t47.5 126.5t-47.5 126.5t-122.5 50.5t-123 -51t-48 -126t48 -126t123 -51z" />
    <glyph glyph-name="o" unicode="&#xf3;" horiz-adv-x="602" 
d="M301 -8q-112 0 -186 74.5t-74 183.5t74 183.5t186 74.5t185.5 -74.5t73.5 -183.5t-73.5 -183.5t-185.5 -74.5zM301 73q75 0 122.5 50.5t47.5 126.5t-47.5 126.5t-122.5 50.5t-123 -51t-48 -126t48 -126t123 -51z" />
    <glyph glyph-name="o" unicode="&#xf2;" horiz-adv-x="602" 
d="M301 -8q-112 0 -186 74.5t-74 183.5t74 183.5t186 74.5t185.5 -74.5t73.5 -183.5t-73.5 -183.5t-185.5 -74.5zM301 73q75 0 122.5 50.5t47.5 126.5t-47.5 126.5t-122.5 50.5t-123 -51t-48 -126t48 -126t123 -51z" />
    <glyph glyph-name="p" unicode="p" 
d="M75 500h86v-50q63 58 159 58q110 0 182.5 -74.5t72.5 -183.5t-72.5 -183.5t-182.5 -74.5q-96 0 -159 58v-234h-86v684zM318 73q73 0 120.5 51t47.5 126t-47.5 126t-120.5 51q-52 0 -93.5 -22.5t-63.5 -58.5v-192q22 -36 63.5 -58.5t93.5 -22.5z" />
    <glyph glyph-name="p" unicode="&#xfe;" 
d="M75 500h86v-50q63 58 159 58q110 0 182.5 -74.5t72.5 -183.5t-72.5 -183.5t-182.5 -74.5q-96 0 -159 58v-234h-86v684zM318 73q73 0 120.5 51t47.5 126t-47.5 126t-120.5 51q-52 0 -93.5 -22.5t-63.5 -58.5v-192q22 -36 63.5 -58.5t93.5 -22.5z" />
    <glyph glyph-name="q" unicode="q" 
d="M542 500v-684h-86v234q-63 -58 -159 -58q-110 0 -182.5 74.5t-72.5 183.5t72.5 183.5t182.5 74.5q96 0 159 -58v50h86zM299 73q52 0 93.5 22.5t63.5 58.5v192q-22 36 -63.5 58.5t-93.5 22.5q-73 0 -120.5 -51t-47.5 -126t47.5 -126t120.5 -51z" />
    <glyph glyph-name="r" unicode="r" horiz-adv-x="351" 
d="M75 0v500h86v-59q51 64 138 64q19 0 35 -3v-89q-21 6 -48 6q-42 0 -75.5 -20.5t-49.5 -58.5v-340h-86z" />
    <glyph glyph-name="r" unicode="&#x159;" horiz-adv-x="351" 
d="M75 0v500h86v-59q51 64 138 64q19 0 35 -3v-89q-21 6 -48 6q-42 0 -75.5 -20.5t-49.5 -58.5v-340h-86z" />
    <glyph glyph-name="r" unicode="&#x157;" horiz-adv-x="351" 
d="M75 0v500h86v-59q51 64 138 64q19 0 35 -3v-89q-21 6 -48 6q-42 0 -75.5 -20.5t-49.5 -58.5v-340h-86z" />
    <glyph glyph-name="r" unicode="&#x155;" horiz-adv-x="351" 
d="M75 0v500h86v-59q51 64 138 64q19 0 35 -3v-89q-21 6 -48 6q-42 0 -75.5 -20.5t-49.5 -58.5v-340h-86z" />
    <glyph glyph-name="s" unicode="s" horiz-adv-x="420" 
d="M207 -8q-117 0 -177 100l68 46q41 -69 111 -69q38 0 63.5 17.5t25.5 45.5t-20 46t-65 34l-39 15q-119 45 -119 148q0 57 44 95t112 38q104 0 150 -90l-67 -39q-25 52 -83 52q-30 0 -50.5 -15t-20.5 -40q0 -50 73 -76l41 -15q130 -47 130 -150q0 -61 -48.5 -102
t-128.5 -41z" />
    <glyph glyph-name="s" unicode="&#x219;" horiz-adv-x="420" 
d="M207 -8q-117 0 -177 100l68 46q41 -69 111 -69q38 0 63.5 17.5t25.5 45.5t-20 46t-65 34l-39 15q-119 45 -119 148q0 57 44 95t112 38q104 0 150 -90l-67 -39q-25 52 -83 52q-30 0 -50.5 -15t-20.5 -40q0 -50 73 -76l41 -15q130 -47 130 -150q0 -61 -48.5 -102
t-128.5 -41z" />
    <glyph glyph-name="s" unicode="&#x161;" horiz-adv-x="420" 
d="M207 -8q-117 0 -177 100l68 46q41 -69 111 -69q38 0 63.5 17.5t25.5 45.5t-20 46t-65 34l-39 15q-119 45 -119 148q0 57 44 95t112 38q104 0 150 -90l-67 -39q-25 52 -83 52q-30 0 -50.5 -15t-20.5 -40q0 -50 73 -76l41 -15q130 -47 130 -150q0 -61 -48.5 -102
t-128.5 -41z" />
    <glyph glyph-name="s" unicode="&#x15f;" horiz-adv-x="420" 
d="M207 -8q-117 0 -177 100l68 46q41 -69 111 -69q38 0 63.5 17.5t25.5 45.5t-20 46t-65 34l-39 15q-119 45 -119 148q0 57 44 95t112 38q104 0 150 -90l-67 -39q-25 52 -83 52q-30 0 -50.5 -15t-20.5 -40q0 -50 73 -76l41 -15q130 -47 130 -150q0 -61 -48.5 -102
t-128.5 -41z" />
    <glyph glyph-name="s" unicode="&#x15d;" horiz-adv-x="420" 
d="M207 -8q-117 0 -177 100l68 46q41 -69 111 -69q38 0 63.5 17.5t25.5 45.5t-20 46t-65 34l-39 15q-119 45 -119 148q0 57 44 95t112 38q104 0 150 -90l-67 -39q-25 52 -83 52q-30 0 -50.5 -15t-20.5 -40q0 -50 73 -76l41 -15q130 -47 130 -150q0 -61 -48.5 -102
t-128.5 -41z" />
    <glyph glyph-name="s" unicode="&#x15b;" horiz-adv-x="420" 
d="M207 -8q-117 0 -177 100l68 46q41 -69 111 -69q38 0 63.5 17.5t25.5 45.5t-20 46t-65 34l-39 15q-119 45 -119 148q0 57 44 95t112 38q104 0 150 -90l-67 -39q-25 52 -83 52q-30 0 -50.5 -15t-20.5 -40q0 -50 73 -76l41 -15q130 -47 130 -150q0 -61 -48.5 -102
t-128.5 -41z" />
    <glyph glyph-name="s" unicode="&#xdf;" horiz-adv-x="420" 
d="M207 -8q-117 0 -177 100l68 46q41 -69 111 -69q38 0 63.5 17.5t25.5 45.5t-20 46t-65 34l-39 15q-119 45 -119 148q0 57 44 95t112 38q104 0 150 -90l-67 -39q-25 52 -83 52q-30 0 -50.5 -15t-20.5 -40q0 -50 73 -76l41 -15q130 -47 130 -150q0 -61 -48.5 -102
t-128.5 -41z" />
    <glyph glyph-name="t" unicode="t" horiz-adv-x="364" 
d="M258 0q-73 0 -112 37t-39 108v277h-80l-19 78h99v107l86 43v-150h151l-19 -78h-132v-264q0 -40 17 -60t57 -20h67v-78h-76z" />
    <glyph glyph-name="t" unicode="&#x21b;" horiz-adv-x="364" 
d="M258 0q-73 0 -112 37t-39 108v277h-80l-19 78h99v107l86 43v-150h151l-19 -78h-132v-264q0 -40 17 -60t57 -20h67v-78h-76z" />
    <glyph glyph-name="t" unicode="&#x167;" horiz-adv-x="364" 
d="M258 0q-73 0 -112 37t-39 108v277h-80l-19 78h99v107l86 43v-150h151l-19 -78h-132v-264q0 -40 17 -60t57 -20h67v-78h-76z" />
    <glyph glyph-name="t" unicode="&#x165;" horiz-adv-x="364" 
d="M258 0q-73 0 -112 37t-39 108v277h-80l-19 78h99v107l86 43v-150h151l-19 -78h-132v-264q0 -40 17 -60t57 -20h67v-78h-76z" />
    <glyph glyph-name="t" unicode="&#x163;" horiz-adv-x="364" 
d="M258 0q-73 0 -112 37t-39 108v277h-80l-19 78h99v107l86 43v-150h151l-19 -78h-132v-264q0 -40 17 -60t57 -20h67v-78h-76z" />
    <glyph glyph-name="u" unicode="u" horiz-adv-x="577" 
d="M416 0v56q-52 -64 -154 -64q-86 0 -139.5 55.5t-53.5 147.5v305h86v-300q0 -56 34 -91.5t91 -35.5q104 0 136 100v327h86v-500h-86z" />
    <glyph glyph-name="u" unicode="&#x1ee5;" horiz-adv-x="577" 
d="M416 0v56q-52 -64 -154 -64q-86 0 -139.5 55.5t-53.5 147.5v305h86v-300q0 -56 34 -91.5t91 -35.5q104 0 136 100v327h86v-500h-86z" />
    <glyph glyph-name="u" unicode="&#x173;" horiz-adv-x="577" 
d="M416 0v56q-52 -64 -154 -64q-86 0 -139.5 55.5t-53.5 147.5v305h86v-300q0 -56 34 -91.5t91 -35.5q104 0 136 100v327h86v-500h-86z" />
    <glyph glyph-name="u" unicode="&#x171;" horiz-adv-x="577" 
d="M416 0v56q-52 -64 -154 -64q-86 0 -139.5 55.5t-53.5 147.5v305h86v-300q0 -56 34 -91.5t91 -35.5q104 0 136 100v327h86v-500h-86z" />
    <glyph glyph-name="u" unicode="&#x16f;" horiz-adv-x="577" 
d="M416 0v56q-52 -64 -154 -64q-86 0 -139.5 55.5t-53.5 147.5v305h86v-300q0 -56 34 -91.5t91 -35.5q104 0 136 100v327h86v-500h-86z" />
    <glyph glyph-name="u" unicode="&#x16d;" horiz-adv-x="577" 
d="M416 0v56q-52 -64 -154 -64q-86 0 -139.5 55.5t-53.5 147.5v305h86v-300q0 -56 34 -91.5t91 -35.5q104 0 136 100v327h86v-500h-86z" />
    <glyph glyph-name="u" unicode="&#x16b;" horiz-adv-x="577" 
d="M416 0v56q-52 -64 -154 -64q-86 0 -139.5 55.5t-53.5 147.5v305h86v-300q0 -56 34 -91.5t91 -35.5q104 0 136 100v327h86v-500h-86z" />
    <glyph glyph-name="u" unicode="&#x169;" horiz-adv-x="577" 
d="M416 0v56q-52 -64 -154 -64q-86 0 -139.5 55.5t-53.5 147.5v305h86v-300q0 -56 34 -91.5t91 -35.5q104 0 136 100v327h86v-500h-86z" />
    <glyph glyph-name="u" unicode="&#xfc;" horiz-adv-x="577" 
d="M416 0v56q-52 -64 -154 -64q-86 0 -139.5 55.5t-53.5 147.5v305h86v-300q0 -56 34 -91.5t91 -35.5q104 0 136 100v327h86v-500h-86z" />
    <glyph glyph-name="u" unicode="&#xfb;" horiz-adv-x="577" 
d="M416 0v56q-52 -64 -154 -64q-86 0 -139.5 55.5t-53.5 147.5v305h86v-300q0 -56 34 -91.5t91 -35.5q104 0 136 100v327h86v-500h-86z" />
    <glyph glyph-name="u" unicode="&#xfa;" horiz-adv-x="577" 
d="M416 0v56q-52 -64 -154 -64q-86 0 -139.5 55.5t-53.5 147.5v305h86v-300q0 -56 34 -91.5t91 -35.5q104 0 136 100v327h86v-500h-86z" />
    <glyph glyph-name="u" unicode="&#xf9;" horiz-adv-x="577" 
d="M416 0v56q-52 -64 -154 -64q-86 0 -139.5 55.5t-53.5 147.5v305h86v-300q0 -56 34 -91.5t91 -35.5q104 0 136 100v327h86v-500h-86z" />
    <glyph glyph-name="v" unicode="v" horiz-adv-x="520" 
d="M260 -8l-264 508h97l167 -338l168 338h97z" />
    <glyph glyph-name="w" unicode="w" horiz-adv-x="700" 
d="M169 0l-158 500h89l112 -364l138 372l138 -372l112 364h89l-158 -500h-69l-112 304l-111 -304h-70z" />
    <glyph glyph-name="w" unicode="&#x1e85;" horiz-adv-x="700" 
d="M169 0l-158 500h89l112 -364l138 372l138 -372l112 364h89l-158 -500h-69l-112 304l-111 -304h-70z" />
    <glyph glyph-name="w" unicode="&#x1e83;" horiz-adv-x="700" 
d="M169 0l-158 500h89l112 -364l138 372l138 -372l112 364h89l-158 -500h-69l-112 304l-111 -304h-70z" />
    <glyph glyph-name="w" unicode="&#x1e81;" horiz-adv-x="700" 
d="M169 0l-158 500h89l112 -364l138 372l138 -372l112 364h89l-158 -500h-69l-112 304l-111 -304h-70z" />
    <glyph glyph-name="w" unicode="&#x175;" horiz-adv-x="700" 
d="M169 0l-158 500h89l112 -364l138 372l138 -372l112 364h89l-158 -500h-69l-112 304l-111 -304h-70z" />
    <glyph glyph-name="x" unicode="x" horiz-adv-x="514" 
d="M10 0l195 254l-185 246h99l139 -184l137 184h99l-185 -246l195 -254h-100l-147 194l-147 -194h-100z" />
    <glyph glyph-name="y" unicode="y" horiz-adv-x="507" 
d="M107 -184l103 226l-204 458h93l156 -364l157 364h93l-307 -684h-91z" />
    <glyph glyph-name="y" unicode="&#x1ef3;" horiz-adv-x="507" 
d="M107 -184l103 226l-204 458h93l156 -364l157 364h93l-307 -684h-91z" />
    <glyph glyph-name="y" unicode="&#x233;" horiz-adv-x="507" 
d="M107 -184l103 226l-204 458h93l156 -364l157 364h93l-307 -684h-91z" />
    <glyph glyph-name="y" unicode="&#x177;" horiz-adv-x="507" 
d="M107 -184l103 226l-204 458h93l156 -364l157 364h93l-307 -684h-91z" />
    <glyph glyph-name="y" unicode="&#xff;" horiz-adv-x="507" 
d="M107 -184l103 226l-204 458h93l156 -364l157 364h93l-307 -684h-91z" />
    <glyph glyph-name="y" unicode="&#xfd;" horiz-adv-x="507" 
d="M107 -184l103 226l-204 458h93l156 -364l157 364h93l-307 -684h-91z" />
    <glyph glyph-name="z" unicode="z" horiz-adv-x="486" 
d="M16 0l292 422h-260v78h411l-291 -422h281v-78h-433z" />
    <glyph glyph-name="z" unicode="&#x17e;" horiz-adv-x="486" 
d="M16 0l292 422h-260v78h411l-291 -422h281v-78h-433z" />
    <glyph glyph-name="z" unicode="&#x17c;" horiz-adv-x="486" 
d="M16 0l292 422h-260v78h411l-291 -422h281v-78h-433z" />
    <glyph glyph-name="z" unicode="&#x17a;" horiz-adv-x="486" 
d="M16 0l292 422h-260v78h411l-291 -422h281v-78h-433z" />
    <glyph glyph-name="uni00A0" unicode="&#xa0;" horiz-adv-x="250" 
 />
    <glyph glyph-name="uni00AD" unicode="&#xad;" horiz-adv-x="375" 
d="M66 229v89h243v-89h-243z" />
    <glyph glyph-name="paragraph" unicode="&#xb6;" horiz-adv-x="635" 
d="M255 -184v444q-93 0 -159 66t-66 159t66 159t159 66h275v-894h-78v816h-118v-816h-79z" />
    <glyph glyph-name="periodcentered" unicode="&#xb7;" horiz-adv-x="270" 
d="M135 175q-30 0 -52 21.5t-22 52.5t22 52.5t52 21.5t52 -21.5t22 -52.5t-22 -52.5t-52 -21.5z" />
    <glyph glyph-name="uni0415" unicode="&#x401;" horiz-adv-x="555" 
d="M95 0v710h410v-88h-319v-215h259v-88h-259v-231h319v-88h-410z" />
    <glyph glyph-name="uni0415" unicode="&#x415;" horiz-adv-x="555" 
d="M95 0v710h410v-88h-319v-215h259v-88h-259v-231h319v-88h-410z" />
    <glyph glyph-name="uni0402" unicode="&#x402;" horiz-adv-x="732" 
d="M189 0v622h-172v88h475v-88h-212v-222q60 23 102 32t100 9q96 0 154.5 -61.5t58.5 -176.5q0 -141 -79 -222.5t-197 -81.5h-15v82h12q21 0 43 5t49 19.5t47.5 36.5t34.5 61t14 89q0 78 -37 119.5t-101 41.5q-54 0 -90 -8t-96 -32v-313h-91z" />
    <glyph glyph-name="uni0413" unicode="&#x403;" horiz-adv-x="500" 
d="M483 710v-88h-297v-622h-91v710h388z" />
    <glyph glyph-name="uni0413" unicode="&#x492;" horiz-adv-x="500" 
d="M483 710v-88h-297v-622h-91v710h388z" />
    <glyph glyph-name="uni0413" unicode="&#x413;" horiz-adv-x="500" 
d="M483 710v-88h-297v-622h-91v710h388z" />
    <glyph glyph-name="uni0404" unicode="&#x404;" horiz-adv-x="726" 
d="M409 -8q-153 0 -258 104.5t-105 258.5t105 258.5t258 104.5q90 0 165.5 -38t118.5 -97l-65 -57q-36 49 -93 77t-126 28q-102 0 -175.5 -63t-90.5 -161h353v-88h-355q12 -104 87 -172t181 -68q69 0 126 28t93 77l65 -57q-43 -59 -118.5 -97t-165.5 -38z" />
    <glyph glyph-name="uni0405" unicode="&#x405;" horiz-adv-x="528" 
d="M263 -8q-74 0 -136 31t-95 79l69 60q28 -36 70 -59.5t91 -23.5q62 0 98 27t36 73q0 47 -28 76.5t-88 55.5l-65 28q-155 66 -155 201q0 78 62.5 128t144.5 50q124 0 199 -91l-64 -64q-57 68 -138 68q-47 0 -80 -25t-33 -68q0 -39 24.5 -67t80.5 -53l65 -28
q167 -73 167 -201q0 -88 -61 -142.5t-164 -54.5z" />
    <glyph glyph-name="uni0406" unicode="&#x406;" horiz-adv-x="281" 
d="M95 0v710h91v-710h-91z" />
    <glyph glyph-name="uni0406" unicode="&#x407;" horiz-adv-x="281" 
d="M95 0v710h91v-710h-91z" />
    <glyph glyph-name="uni0408" unicode="&#x408;" horiz-adv-x="523" 
d="M228 -8q-89 0 -148 55t-59 151h91q0 -58 32.5 -88.5t82.5 -30.5q53 0 85 30.5t32 88.5v512h91v-518q0 -95 -59.5 -147.5t-147.5 -52.5z" />
    <glyph glyph-name="uni0409" unicode="&#x409;" horiz-adv-x="941" 
d="M-7 0l346 718l140 -290h179q114 0 182 -58t68 -156q0 -99 -68 -156.5t-182 -57.5h-71l-248 524l-248 -524h-98zM657 344h-137l125 -260h12q77 0 118.5 33.5t41.5 96.5t-41.5 96.5t-118.5 33.5z" />
    <glyph glyph-name="uni040A" unicode="&#x40a;" horiz-adv-x="999" 
d="M95 0v710h91v-303h332v303h91v-303h108q114 0 182.5 -55t68.5 -141q0 -97 -68 -154t-183 -57h-199v319h-332v-319h-91zM717 319h-108v-235h108q159 0 159 126q0 51 -41 80t-118 29z" />
    <glyph glyph-name="uni040B" unicode="&#x40b;" horiz-adv-x="757" 
d="M189 622h-172v88h475v-88h-212v-222q103 40 215 40q94 0 154.5 -58.5t60.5 -146.5v-235h-91v225q-1 55 -36 91.5t-95 36.5q-107 0 -208 -40v-313h-91v622z" />
    <glyph glyph-name="uni041A" unicode="&#x40c;" horiz-adv-x="641" 
d="M95 0v710h91v-356l324 356h112l-328 -361l355 -349h-121l-342 337v-337h-91z" />
    <glyph glyph-name="uni041A" unicode="&#x49a;" horiz-adv-x="641" 
d="M95 0v710h91v-356l324 356h112l-328 -361l355 -349h-121l-342 337v-337h-91z" />
    <glyph glyph-name="uni041A" unicode="&#x41a;" horiz-adv-x="641" 
d="M95 0v710h91v-356l324 356h112l-328 -361l355 -349h-121l-342 337v-337h-91z" />
    <glyph glyph-name="uni0423" unicode="&#x40e;" horiz-adv-x="657" 
d="M197 0l89 169l-273 541h100l224 -445l235 445h94l-375 -710h-94z" />
    <glyph glyph-name="uni0423" unicode="&#x4ee;" horiz-adv-x="657" 
d="M197 0l89 169l-273 541h100l224 -445l235 445h94l-375 -710h-94z" />
    <glyph glyph-name="uni0423" unicode="&#x423;" horiz-adv-x="657" 
d="M197 0l89 169l-273 541h100l224 -445l235 445h94l-375 -710h-94z" />
    <glyph glyph-name="uni040F" unicode="&#x40f;" horiz-adv-x="737" 
d="M413 0v-148h-89v148h-229v710h91v-622h365v622h91v-710h-229z" />
    <glyph glyph-name="uni0410" unicode="&#x410;" horiz-adv-x="678" 
d="M-7 0l346 718l346 -718h-98l-88 186h-320l-88 -186h-98zM219 270h240l-120 254z" />
    <glyph glyph-name="uni0411" unicode="&#x411;" horiz-adv-x="621" 
d="M186 622v-209h165q106 0 171 -57.5t65 -151.5q0 -96 -71 -150t-186 -54h-235v710h428v-88h-337zM186 85h160q72 0 111.5 33t39.5 88q0 56 -39.5 90t-111.5 34h-160v-245z" />
    <glyph glyph-name="uni0412" unicode="&#x412;" horiz-adv-x="632" 
d="M95 0v710h237q99 0 154 -53t55 -132q0 -98 -74 -148q121 -47 121 -177q0 -95 -66.5 -147.5t-178.5 -52.5h-248zM186 404h144q55 0 87.5 31.5t32.5 79.5q0 47 -32.5 79t-87.5 32h-144v-222zM186 84h168q69 0 105.5 33t36.5 87t-36.5 88t-105.5 34h-168v-242z" />
    <glyph glyph-name="uni0414" unicode="&#x414;" horiz-adv-x="755" 
d="M16 -148v236h69l292 630l292 -630h70v-236h-89v148h-545v-148h-89zM178 88h398l-199 437z" />
    <glyph glyph-name="uni0416" unicode="&#x416;" horiz-adv-x="961" 
d="M-8 0l336 349l-309 361h112l304 -356v356h91v-356l304 356h112l-309 -361l336 -349h-121l-322 337v-337h-91v337l-322 -337h-121z" />
    <glyph glyph-name="uni0416" unicode="&#x496;" horiz-adv-x="961" 
d="M-8 0l336 349l-309 361h112l304 -356v356h91v-356l304 356h112l-309 -361l336 -349h-121l-322 337v-337h-91v337l-322 -337h-121z" />
    <glyph glyph-name="uni0417" unicode="&#x417;" horiz-adv-x="550" 
d="M116 567l-63 61q95 90 209 90q98 0 155 -55.5t57 -137.5q0 -103 -91 -153q55 -19 85.5 -64.5t30.5 -107.5q0 -97 -71 -152.5t-171 -55.5q-73 0 -136.5 30t-101.5 78l67 61q30 -37 76.5 -60t97.5 -23q67 0 107.5 35.5t40.5 90.5t-37 89.5t-107 34.5h-69v78h72q55 0 85 32
t30 81q0 50 -31.5 81.5t-90.5 31.5q-81 0 -144 -65z" />
    <glyph glyph-name="uni0418" unicode="&#x418;" horiz-adv-x="787" 
d="M95 -8v718h91v-505l506 513v-718h-91v505z" />
    <glyph glyph-name="uni0418" unicode="&#x4e2;" horiz-adv-x="787" 
d="M95 -8v718h91v-505l506 513v-718h-91v505z" />
    <glyph glyph-name="uni0418" unicode="&#x419;" horiz-adv-x="787" 
d="M95 -8v718h91v-505l506 513v-718h-91v505z" />
    <glyph glyph-name="uni041B" unicode="&#x41b;" horiz-adv-x="678" 
d="M-7 0l346 718l346 -718h-98l-248 524l-248 -524h-98z" />
    <glyph glyph-name="uni041C" unicode="&#x41c;" horiz-adv-x="882" 
d="M95 0v718l346 -381l346 381v-718h-91v494l-255 -285l-255 285v-494h-91z" />
    <glyph glyph-name="uni041D" unicode="&#x41d;" horiz-adv-x="764" 
d="M95 0v710h91v-303h392v303h91v-710h-91v319h-392v-319h-91z" />
    <glyph glyph-name="uni041D" unicode="&#x4a2;" horiz-adv-x="764" 
d="M95 0v710h91v-303h392v303h91v-710h-91v319h-392v-319h-91z" />
    <glyph glyph-name="uni041E" unicode="&#x41e;" horiz-adv-x="818" 
d="M409 -8q-153 0 -258 104.5t-105 258.5t105 258.5t258 104.5t258 -104.5t105 -258.5t-105 -258.5t-258 -104.5zM409 79q116 0 193 79.5t77 196.5t-77 196.5t-193 79.5t-193 -79.5t-77 -196.5t77 -196.5t193 -79.5z" />
    <glyph glyph-name="uni041F" unicode="&#x41f;" horiz-adv-x="732" 
d="M546 0v622h-360v-622h-91v710h542v-710h-91z" />
    <glyph glyph-name="uni0420" unicode="&#x420;" horiz-adv-x="574" 
d="M95 0v710h201q112 0 179 -58.5t67 -158.5q0 -99 -67 -158t-179 -59h-110v-276h-91zM186 360h107q76 0 116 34.5t40 98.5q0 63 -40 98t-116 35h-107v-266z" />
    <glyph glyph-name="uni0421" unicode="&#x421;" horiz-adv-x="722" 
d="M409 -8q-153 0 -258 104.5t-105 258.5t105 258.5t258 104.5q90 0 165.5 -38t118.5 -97l-65 -57q-36 49 -93 77t-126 28q-116 0 -193 -79.5t-77 -196.5t77 -196.5t193 -79.5q69 0 126 28t93 77l65 -57q-43 -59 -118.5 -97t-165.5 -38z" />
    <glyph glyph-name="uni0422" unicode="&#x422;" horiz-adv-x="526" 
d="M217 0v622h-201v88h494v-88h-202v-622h-91z" />
    <glyph glyph-name="uni0424" unicode="&#x424;" horiz-adv-x="851" 
d="M471 -20h-91v88q-161 6 -249.5 85t-88.5 208t88.5 207t249.5 83v79h91v-79q161 -6 249.5 -85t88.5 -208q0 -128 -88.5 -206.5t-249.5 -83.5v-88zM471 152q125 4 185 57.5t60 148.5q0 202 -245 209v-415zM135 361q0 -202 245 -209v415q-124 -4 -184.5 -57.5t-60.5 -148.5z
" />
    <glyph glyph-name="uni0425" unicode="&#x425;" horiz-adv-x="639" 
d="M6 0l256 362l-243 348h105l195 -279l195 279h105l-241 -348l255 -362h-103l-210 295l-208 -295h-106z" />
    <glyph glyph-name="uni0425" unicode="&#x4b2;" horiz-adv-x="639" 
d="M6 0l256 362l-243 348h105l195 -279l195 279h105l-241 -348l255 -362h-103l-210 295l-208 -295h-106z" />
    <glyph glyph-name="uni0426" unicode="&#x426;" horiz-adv-x="754" 
d="M629 88h88v-236h-89v148h-533v710h91v-622h352v622h91v-622z" />
    <glyph glyph-name="uni0427" unicode="&#x427;" horiz-adv-x="689" 
d="M594 0h-91v310q-102 -40 -216 -40t-177 53.5t-63 161.5v225h91v-205q0 -84 42.5 -116t120.5 -32q110 0 202 40v313h91v-710z" />
    <glyph glyph-name="uni0427" unicode="&#x4b6;" horiz-adv-x="689" 
d="M594 0h-91v310q-102 -40 -216 -40t-177 53.5t-63 161.5v225h91v-205q0 -84 42.5 -116t120.5 -32q110 0 202 40v313h91v-710z" />
    <glyph glyph-name="uni0428" unicode="&#x428;" horiz-adv-x="981" 
d="M95 0v710h91v-622h259v622h91v-622h259v622h91v-710h-791z" />
    <glyph glyph-name="uni0428" unicode="&#x429;" horiz-adv-x="981" 
d="M95 0v710h91v-622h259v622h91v-622h259v622h91v-710h-791z" />
    <glyph glyph-name="uni042A" unicode="&#x42a;" horiz-adv-x="702" 
d="M208 0v622h-191v88h282v-282h120q114 0 182 -58t68 -156q0 -99 -68 -156.5t-182 -57.5h-211zM299 84h119q77 0 118.5 33.5t41.5 96.5t-41.5 96.5t-118.5 33.5h-119v-260z" />
    <glyph glyph-name="uni042B" unicode="&#x42b;" horiz-adv-x="850" 
d="M186 428h120q114 0 182 -58t68 -156q0 -99 -68 -156.5t-182 -57.5h-211v710h91v-282zM664 0v710h91v-710h-91zM186 84h119q77 0 118.5 33.5t41.5 96.5t-41.5 96.5t-118.5 33.5h-119v-260z" />
    <glyph glyph-name="uni042C" unicode="&#x42c;" horiz-adv-x="589" 
d="M186 428h120q114 0 182 -58t68 -156q0 -99 -68 -156.5t-182 -57.5h-211v710h91v-282zM186 84h119q77 0 118.5 33.5t41.5 96.5t-41.5 96.5t-118.5 33.5h-119v-260z" />
    <glyph glyph-name="uni042D" unicode="&#x42d;" horiz-adv-x="726" 
d="M317 -8q-90 0 -165.5 38t-118.5 97l65 57q36 -49 93 -77t126 -28q106 0 181 68t87 172h-338v88h336q-17 98 -90.5 161t-175.5 63q-69 0 -126 -28t-93 -77l-65 57q43 59 118.5 97t165.5 38q153 0 258 -104.5t105 -258.5t-105 -258.5t-258 -104.5z" />
    <glyph glyph-name="uni042E" unicode="&#x42e;" horiz-adv-x="1054" 
d="M95 0v710h91v-303h118q18 135 116.5 223t233.5 88q148 0 250.5 -104.5t102.5 -258.5t-102.5 -258.5t-250.5 -104.5q-139 0 -238.5 93t-112.5 234h-117v-319h-91zM654 79q111 0 185.5 79.5t74.5 196.5t-74.5 196.5t-185.5 79.5t-185.5 -79.5t-74.5 -196.5t74.5 -196.5
t185.5 -79.5z" />
    <glyph glyph-name="uni042F" unicode="&#x42f;" horiz-adv-x="625" 
d="M24 0l198 299q-72 18 -110.5 69t-38.5 125q0 100 67 158.5t179 58.5h211v-710h-91v276h-126l-182 -276h-107zM322 360h117v266h-117q-76 0 -116 -35t-40 -98q0 -64 40 -98.5t116 -34.5z" />
    <glyph glyph-name="uni0430" unicode="&#x430;" 
d="M456 0v50q-64 -58 -159 -58q-110 0 -182.5 74.5t-72.5 183.5t72.5 183.5t182.5 74.5q95 0 159 -58v50h86v-500h-86zM299 73q52 0 93 22t64 59v192q-23 37 -64 59t-93 22q-73 0 -120.5 -51t-47.5 -126t47.5 -126t120.5 -51z" />
    <glyph glyph-name="uni0431" unicode="&#x431;" horiz-adv-x="619" 
d="M319 -8q-115 0 -187.5 78.5t-72.5 198.5v51q0 175 69.5 267.5t218.5 118.5l185 33v-81l-169 -29q-62 -10 -102.5 -28t-65 -47.5t-37.5 -62t-23 -83.5q72 95 192 95q112 0 181.5 -73.5t69.5 -175.5q0 -110 -74 -186t-185 -76zM319 71q76 0 124.5 52.5t48.5 130.5
q0 74 -48.5 122.5t-124.5 48.5t-124.5 -48.5t-48.5 -122.5q0 -78 48.5 -130.5t124.5 -52.5z" />
    <glyph glyph-name="uni0432" unicode="&#x432;" horiz-adv-x="534" 
d="M75 0v500h212q84 0 129 -35.5t45 -99.5q0 -66 -53 -100q86 -32 86 -121q0 -65 -46.5 -104.5t-137.5 -39.5h-235zM161 291h136q31 0 52.5 16.5t21.5 49.5t-22 50t-52 17h-136v-133zM161 76h156q38 0 62 19.5t24 55.5q0 35 -24 54t-62 19h-156v-148z" />
    <glyph glyph-name="uni0433" unicode="&#x433;" horiz-adv-x="399" 
d="M75 0v500h307v-78h-222v-422h-85z" />
    <glyph glyph-name="uni0433" unicode="&#x493;" horiz-adv-x="399" 
d="M75 0v500h307v-78h-222v-422h-85z" />
    <glyph glyph-name="uni0433" unicode="&#x453;" horiz-adv-x="399" 
d="M75 0v500h307v-78h-222v-422h-85z" />
    <glyph glyph-name="uni0434" unicode="&#x434;" horiz-adv-x="584" 
d="M14 -127v205h55l223 430l224 -430h54v-205h-80v127h-396v-127h-80zM423 78l-134 265l-131 -265h265z" />
    <glyph glyph-name="uni0435" unicode="&#x435;" horiz-adv-x="569" 
d="M299 -8q-110 0 -183.5 74.5t-73.5 183.5t73 183.5t178 74.5q107 0 175 -74.5t69 -204.5h-406q7 -70 55 -113t113 -43q86 0 146 60l55 -60q-77 -81 -201 -81zM288 429q-51 0 -94.5 -31.5t-57.5 -93.5h304q-9 60 -51 93t-101 32z" />
    <glyph glyph-name="uni0435" unicode="&#x451;" horiz-adv-x="569" 
d="M299 -8q-110 0 -183.5 74.5t-73.5 183.5t73 183.5t178 74.5q107 0 175 -74.5t69 -204.5h-406q7 -70 55 -113t113 -43q86 0 146 60l55 -60q-77 -81 -201 -81zM288 429q-51 0 -94.5 -31.5t-57.5 -93.5h304q-9 60 -51 93t-101 32z" />
    <glyph glyph-name="uni0436" unicode="&#x436;" horiz-adv-x="764" 
d="M-1 0l245 249l-221 251h101l215 -247v247h86v-247l215 247h101l-221 -251l245 -249h-108l-232 240v-240h-86v240l-232 -240h-108z" />
    <glyph glyph-name="uni0436" unicode="&#x497;" horiz-adv-x="764" 
d="M-1 0l245 249l-221 251h101l215 -247v247h86v-247l215 247h101l-221 -251l245 -249h-108l-232 240v-240h-86v240l-232 -240h-108z" />
    <glyph glyph-name="uni0437" unicode="&#x437;" horiz-adv-x="459" 
d="M224 -8q-133 0 -197 100l68 45q41 -71 129 -71q106 0 106 80q0 37 -29.5 58t-81.5 21h-65v68h62q40 0 68.5 18t28.5 54q0 33 -26.5 51t-64.5 18q-83 0 -114 -58l-66 42q61 90 181 90q77 0 125 -37.5t48 -100.5q0 -75 -67 -109q41 -16 64.5 -49t23.5 -74q0 -60 -50.5 -103
t-142.5 -43z" />
    <glyph glyph-name="uni0438" unicode="&#x438;" horiz-adv-x="597" 
d="M75 -8v508h85v-334l362 342v-508h-85v329z" />
    <glyph glyph-name="uni0438" unicode="&#x4e3;" horiz-adv-x="597" 
d="M75 -8v508h85v-334l362 342v-508h-85v329z" />
    <glyph glyph-name="uni0438" unicode="&#x439;" horiz-adv-x="597" 
d="M75 -8v508h85v-334l362 342v-508h-85v329z" />
    <glyph glyph-name="uni043A" unicode="&#x43a;" horiz-adv-x="504" 
d="M75 0v500h86v-247l221 247h105l-226 -251l250 -249h-112l-238 240v-240h-86z" />
    <glyph glyph-name="uni043A" unicode="&#x49b;" horiz-adv-x="504" 
d="M75 0v500h86v-247l221 247h105l-226 -251l250 -249h-112l-238 240v-240h-86z" />
    <glyph glyph-name="uni043A" unicode="&#x45c;" horiz-adv-x="504" 
d="M75 0v500h86v-247l221 247h105l-226 -251l250 -249h-112l-238 240v-240h-86z" />
    <glyph glyph-name="uni043B" unicode="&#x43b;" horiz-adv-x="525" 
d="M-2 0l264 508l265 -508h-98l-166 332l-169 -332h-96z" />
    <glyph glyph-name="uni043C" unicode="&#x43c;" horiz-adv-x="687" 
d="M527 0v303l-183 -211l-184 211v-303h-85v510l269 -305l268 305v-510h-85z" />
    <glyph glyph-name="uni043D" unicode="&#x43d;" horiz-adv-x="590" 
d="M75 0v500h85v-206h270v206h85v-500h-85v216h-270v-216h-85z" />
    <glyph glyph-name="uni043D" unicode="&#x4a3;" horiz-adv-x="590" 
d="M75 0v500h85v-206h270v206h85v-500h-85v216h-270v-216h-85z" />
    <glyph glyph-name="uni043E" unicode="&#x43e;" horiz-adv-x="602" 
d="M302 -8q-112 0 -186 74.5t-74 183.5t74 183.5t186 74.5t185.5 -74.5t73.5 -183.5t-73.5 -183.5t-185.5 -74.5zM302 73q75 0 122.5 50.5t47.5 126.5t-47.5 126.5t-122.5 50.5t-123 -51t-48 -126t48 -126t123 -51z" />
    <glyph glyph-name="uni043F" unicode="&#x43f;" horiz-adv-x="579" 
d="M75 0v500h429v-500h-86v422h-257v-422h-86z" />
    <glyph glyph-name="uni0440" unicode="&#x440;" 
d="M75 500h86v-50q63 58 159 58q110 0 182.5 -74.5t72.5 -183.5t-72.5 -183.5t-182.5 -74.5q-96 0 -159 58v-234h-86v684zM318 73q73 0 120.5 51t47.5 126t-47.5 126t-120.5 51q-52 0 -93.5 -22.5t-63.5 -58.5v-192q22 -36 63.5 -58.5t93.5 -22.5z" />
    <glyph glyph-name="uni0441" unicode="&#x441;" horiz-adv-x="518" 
d="M299 -8q-110 0 -183.5 74.5t-73.5 183.5t73.5 183.5t183.5 74.5q114 0 191 -79l-55 -60q-58 58 -136 58q-73 0 -120.5 -51t-47.5 -126t47.5 -126t120.5 -51q78 0 136 58l55 -60q-77 -79 -191 -79z" />
    <glyph glyph-name="uni0442" unicode="&#x442;" horiz-adv-x="442" 
d="M175 0v422h-158v78h408v-78h-165v-422h-85z" />
    <glyph glyph-name="uni0443" unicode="&#x443;" horiz-adv-x="507" 
d="M107 -184l103 226l-204 458h93l156 -364l157 364h93l-307 -684h-91z" />
    <glyph glyph-name="uni0443" unicode="&#x4ef;" horiz-adv-x="507" 
d="M107 -184l103 226l-204 458h93l156 -364l157 364h93l-307 -684h-91z" />
    <glyph glyph-name="uni0443" unicode="&#x45e;" horiz-adv-x="507" 
d="M107 -184l103 226l-204 458h93l156 -364l157 364h93l-307 -684h-91z" />
    <glyph glyph-name="uni0444" unicode="&#x444;" horiz-adv-x="726" 
d="M406 -184h-85v176q-131 4 -205 76.5t-74 181.5t74 182.5t205 75.5v202h85v-202q131 -2 205 -75.5t74 -182.5t-74 -181.5t-205 -76.5v-176zM406 70q92 3 142 53.5t50 126.5t-50 127.5t-142 52.5v-360zM129 250q0 -76 50 -126.5t142 -53.5v360q-92 -1 -142 -52.5
t-50 -127.5z" />
    <glyph glyph-name="uni0445" unicode="&#x445;" horiz-adv-x="514" 
d="M10 0l195 254l-185 246h99l139 -184l137 184h99l-185 -246l195 -254h-100l-147 194l-147 -194h-100z" />
    <glyph glyph-name="uni0445" unicode="&#x4b3;" horiz-adv-x="514" 
d="M10 0l195 254l-185 246h99l139 -184l137 184h99l-185 -246l195 -254h-100l-147 194l-147 -194h-100z" />
    <glyph glyph-name="uni0446" unicode="&#x446;" horiz-adv-x="609" 
d="M579 78v-205h-80v127h-424v500h86v-422h252v422h86v-422h80z" />
    <glyph glyph-name="uni0447" unicode="&#x447;" horiz-adv-x="534" 
d="M459 0h-86v200q-75 -29 -141 -29q-88 0 -140.5 50t-52.5 140v139h86v-127q0 -121 121 -121q69 0 127 31v217h86v-500z" />
    <glyph glyph-name="uni0447" unicode="&#x4b7;" horiz-adv-x="534" 
d="M459 0h-86v200q-75 -29 -141 -29q-88 0 -140.5 50t-52.5 140v139h86v-127q0 -121 121 -121q69 0 127 31v217h86v-500z" />
    <glyph glyph-name="uni0448" unicode="&#x448;" horiz-adv-x="797" 
d="M75 0v500h85v-422h196v422h85v-422h196v422h85v-500h-647z" />
    <glyph glyph-name="uni0448" unicode="&#x449;" horiz-adv-x="797" 
d="M75 0v500h85v-422h196v422h85v-422h196v422h85v-500h-647z" />
    <glyph glyph-name="uni044A" unicode="&#x44a;" horiz-adv-x="556" 
d="M158 0v422h-140v78h226v-186h90q94 0 142.5 -45t48.5 -111q0 -67 -49 -112.5t-142 -45.5h-176zM244 78h93q48 0 75.5 21t27.5 59q0 39 -27 58.5t-74 19.5h-95v-158z" />
    <glyph glyph-name="uni044B" unicode="&#x44b;" horiz-adv-x="687" 
d="M526 0v500h86v-500h-86zM75 0v500h86v-186h100q94 0 142.5 -45t48.5 -111q0 -67 -49 -112.5t-142 -45.5h-186zM161 78h103q48 0 75.5 21t27.5 59q0 39 -27 58.5t-74 19.5h-105v-158z" />
    <glyph glyph-name="uni044C" unicode="&#x44c;" horiz-adv-x="482" 
d="M75 0v500h86v-186h100q94 0 142.5 -45t48.5 -111q0 -67 -49 -112.5t-142 -45.5h-186zM161 78h103q48 0 75.5 21t27.5 59q0 39 -27 58.5t-74 19.5h-105v-158z" />
    <glyph glyph-name="uni044D" unicode="&#x44d;" horiz-adv-x="521" 
d="M222 -8q-114 0 -191 79l55 60q58 -58 136 -58q64 0 109 40.5t56 102.5h-223v77h221q-13 59 -57.5 96.5t-105.5 37.5q-78 0 -136 -58l-55 60q77 79 191 79q110 0 183.5 -74.5t73.5 -183.5t-73.5 -183.5t-183.5 -74.5z" />
    <glyph glyph-name="uni044E" unicode="&#x44e;" horiz-adv-x="793" 
d="M161 293h94q14 94 82.5 154.5t164.5 60.5q107 0 178 -74.5t71 -183.5t-71 -183.5t-178 -74.5q-99 0 -168 63.5t-80 160.5h-93v-216h-86v500h86v-207zM502 73q71 0 115.5 50.5t44.5 126.5t-44.5 126.5t-115.5 50.5t-116 -51t-45 -126t45 -126t116 -51z" />
    <glyph glyph-name="uni044F" unicode="&#x44f;" horiz-adv-x="513" 
d="M26 0l151 203q-54 13 -84.5 51.5t-30.5 91.5q0 71 47 112.5t142 41.5h187v-500h-86v189h-90l-139 -189h-97zM246 263h106v163h-106q-101 0 -101 -82q0 -81 101 -81z" />
    <glyph glyph-name="uni0452" unicode="&#x452;" horiz-adv-x="578" 
d="M319 -184v78h30q40 0 57 20t17 60v326q0 56 -34 91.5t-92 35.5q-52 0 -87 -27.5t-49 -76.5v-323h-86v573h-70v65h70v72h86v-72h171v-65h-171v-130q51 65 155 65q86 0 139.5 -55.5t53.5 -147.5v-344q0 -71 -39 -108t-112 -37h-39z" />
    <glyph glyph-name="uni0454" unicode="&#x454;" horiz-adv-x="521" 
d="M299 -8q-110 0 -183.5 74.5t-73.5 183.5t73.5 183.5t183.5 74.5q114 0 191 -79l-55 -60q-58 58 -136 58q-61 0 -105.5 -37.5t-57.5 -96.5h221v-77h-223q11 -62 56 -102.5t109 -40.5q78 0 136 58l55 -60q-77 -79 -191 -79z" />
    <glyph glyph-name="uni0455" unicode="&#x455;" horiz-adv-x="420" 
d="M207 -8q-117 0 -177 100l68 46q41 -69 111 -69q38 0 63.5 17.5t25.5 45.5t-20 46t-65 34l-39 15q-119 45 -119 148q0 57 44 95t112 38q104 0 150 -90l-67 -39q-25 52 -83 52q-30 0 -50.5 -15t-20.5 -40q0 -50 73 -76l41 -15q130 -47 130 -150q0 -61 -48.5 -102
t-128.5 -41z" />
    <glyph glyph-name="uni0456" unicode="&#x456;" horiz-adv-x="236" 
d="M75 609q-19 17 -19 46q0 26 18 44.5t44 18.5t44 -18.5t18 -44.5q0 -29 -19 -46h-86zM75 0v500h86v-500h-86z" />
    <glyph glyph-name="uni0456" unicode="&#x457;" horiz-adv-x="236" 
d="M75 609q-19 17 -19 46q0 26 18 44.5t44 18.5t44 -18.5t18 -44.5q0 -29 -19 -46h-86zM75 0v500h86v-500h-86z" />
    <glyph glyph-name="uni0458" unicode="&#x458;" horiz-adv-x="244" 
d="M83 609q-19 17 -19 46q0 26 18 44.5t44 18.5t44 -18.5t18 -44.5q0 -29 -19 -46h-86zM-21 -184v78h30q40 0 57 20t17 60v526h86v-539q0 -71 -39 -108t-112 -37h-39z" />
    <glyph glyph-name="uni0459" unicode="&#x459;" horiz-adv-x="729" 
d="M262 508l100 -194h148q96 0 142 -44t46 -112q0 -67 -47.5 -112.5t-141.5 -45.5h-81l-168 329l-167 -329h-95zM514 236h-111l81 -158h28q49 0 76 20.5t27 59.5q0 78 -101 78z" />
    <glyph glyph-name="uni045A" unicode="&#x45a;" horiz-adv-x="774" 
d="M567 0h-178v216h-229v-216h-85v500h85v-207h229v207h85v-207h93q87 0 132 -41.5t45 -103.5q0 -63 -45 -105.5t-132 -42.5zM661 147q0 34 -23.5 51.5t-64.5 17.5h-99v-139h97q42 0 66 18.5t24 51.5z" />
    <glyph glyph-name="uni045B" unicode="&#x45b;" horiz-adv-x="578" 
d="M75 0v573h-70v65h70v72h86v-72h171v-65h-171v-130q51 65 155 65q86 0 139.5 -55.5t53.5 -147.5v-305h-86v300q0 56 -34 91.5t-92 35.5q-52 0 -87 -27.5t-49 -76.5v-323h-86z" />
    <glyph glyph-name="uni045F" unicode="&#x45f;" horiz-adv-x="585" 
d="M510 0h-177v-127h-80v127h-178v500h85v-422h265v422h85v-500z" />
    <glyph glyph-name="uni0462" unicode="&#x462;" horiz-adv-x="705" 
d="M301 428h120q114 0 182 -58t68 -156q0 -99 -68 -156.5t-182 -57.5h-211v536h-184v65h184v129h91v-129h228v-65h-228v-108zM301 84h119q77 0 118.5 33.5t41.5 96.5t-41.5 96.5t-118.5 33.5h-119v-260z" />
    <glyph glyph-name="uni0463" unicode="&#x463;" horiz-adv-x="552" 
d="M219 500h209v-65h-209v-106h97q100 0 152 -44.5t52 -113.5q0 -71 -53 -121t-151 -50h-182v435h-117v65h117v210h85v-210zM219 256v-179h107q50 0 80.5 25.5t30.5 69.5q0 42 -29 63t-80 21h-109z" />
    <glyph glyph-name="uni0472" unicode="&#x472;" horiz-adv-x="818" 
d="M409 -8q-153 0 -258 104.5t-105 258.5t105 258.5t258 104.5t258 -104.5t105 -258.5t-105 -258.5t-258 -104.5zM294 424q40 0 115 -22t126 -22q77 0 139 29q-17 98 -90 160t-175 62q-109 0 -184.5 -71t-84.5 -179q72 43 154 43zM409 79q109 0 185 71.5t84 180.5
q-68 -27 -133 -27q-51 0 -140 22t-123 22q-70 0 -137 -51q18 -96 91 -157t173 -61z" />
    <glyph glyph-name="uni0473" unicode="&#x473;" horiz-adv-x="602" 
d="M302 -8q-112 0 -186 74.5t-74 183.5t74 183.5t186 74.5t185.5 -74.5t73.5 -183.5t-73.5 -183.5t-185.5 -74.5zM302 427q-66 0 -112 -40.5t-56 -103.5h335q-10 63 -55.5 103.5t-111.5 40.5zM302 73q67 0 112 40.5t56 104.5h-337q11 -64 56.5 -104.5t112.5 -40.5z" />
    <glyph glyph-name="uni0474" unicode="&#x474;" horiz-adv-x="656" 
d="M579 568l-251 -576l-328 718h100l228 -509l171 407q43 102 130 102h9v-92q-21 0 -34 -11t-25 -39z" />
    <glyph glyph-name="uni0475" unicode="&#x475;" horiz-adv-x="529" 
d="M457 372l-195 -380l-264 508h100l165 -338l121 243q45 95 130 95v-79q-32 0 -57 -49z" />
    <glyph glyph-name="uni0490" unicode="&#x490;" horiz-adv-x="500" 
d="M95 0v710h299v148h89v-236h-297v-622h-91z" />
    <glyph glyph-name="uni0491" unicode="&#x491;" horiz-adv-x="399" 
d="M75 0v500h226v127h81v-205h-222v-422h-85z" />
    <glyph glyph-name="uni04AE" unicode="&#x4ae;" horiz-adv-x="628" 
d="M268 0v301l-260 409h106l200 -319l200 319h106l-260 -409v-301h-92z" />
    <glyph glyph-name="uni04AE" unicode="&#x4b0;" horiz-adv-x="628" 
d="M268 0v301l-260 409h106l200 -319l200 319h106l-260 -409v-301h-92z" />
    <glyph glyph-name="uni04AF" unicode="&#x4af;" horiz-adv-x="536" 
d="M225 -184v184l-221 500h97l167 -408l168 408h97l-222 -500v-184h-86z" />
    <glyph glyph-name="uni04AF" unicode="&#x4b1;" horiz-adv-x="536" 
d="M225 -184v184l-221 500h97l167 -408l168 408h97l-222 -500v-184h-86z" />
    <glyph glyph-name="uni04BA" unicode="&#x4ba;" horiz-adv-x="689" 
d="M95 710h91v-310q102 40 216 40t177 -53.5t63 -161.5v-225h-91v205q0 84 -42.5 116t-120.5 32q-110 0 -202 -40v-313h-91v710z" />
    <glyph glyph-name="uni04BB" unicode="&#x4bb;" horiz-adv-x="578" 
d="M75 0v710h86v-267q51 65 155 65q86 0 139.5 -55.5t53.5 -147.5v-305h-86v300q0 56 -34 91.5t-92 35.5q-52 0 -87 -27.5t-49 -76.5v-323h-86z" />
    <glyph glyph-name="uni04C0" unicode="&#x4c0;" horiz-adv-x="281" 
d="M95 0v710h91v-710h-91z" />
    <glyph glyph-name="uni04CF" unicode="&#x4cf;" horiz-adv-x="236" 
d="M75 0v710h86v-710h-86z" />
    <glyph glyph-name="uni04D8" unicode="&#x4d8;" horiz-adv-x="782" 
d="M382 -7q-164 0 -258.5 111.5t-94.5 294.5h606q-14 106 -87 169.5t-163 63.5q-112 0 -190 -66l-53 69q93 84 241 84q145 0 248.5 -105t103.5 -258q0 -155 -100.5 -259t-252.5 -104zM382 80q101 0 172 64t82 175h-512q11 -107 78.5 -173t179.5 -66z" />
    <glyph glyph-name="uni04D9" unicode="&#x4d9;" horiz-adv-x="571" 
d="M272 509q110 0 183.5 -74.5t73.5 -183.5t-73 -183.5t-178 -74.5q-111 0 -177.5 77.5t-66.5 201.5h406q-7 70 -55 113t-113 43q-86 0 -146 -60l-55 60q77 81 201 81zM283 72q51 0 94.5 31.5t57.5 93.5h-304q9 -60 51 -93t101 -32z" />
    <glyph glyph-name="uni04E8" unicode="&#x4e8;" horiz-adv-x="818" 
d="M409 -8q-153 0 -258 104.5t-105 258.5t105 258.5t258 104.5t258 -104.5t105 -258.5t-105 -258.5t-258 -104.5zM409 631q-106 0 -180.5 -67.5t-87.5 -171.5h536q-13 104 -87.5 171.5t-180.5 67.5zM409 79q106 0 180.5 67.5t87.5 171.5h-536q13 -104 87.5 -171.5
t180.5 -67.5z" />
    <glyph glyph-name="uni04E9" unicode="&#x4e9;" horiz-adv-x="602" 
d="M302 -8q-112 0 -186 74.5t-74 183.5t74 183.5t186 74.5t185.5 -74.5t73.5 -183.5t-73.5 -183.5t-185.5 -74.5zM302 427q-66 0 -112 -40.5t-56 -103.5h335q-10 63 -55.5 103.5t-111.5 40.5zM302 73q67 0 112 40.5t56 104.5h-337q11 -64 56.5 -104.5t112.5 -40.5z" />
    <glyph glyph-name="quoteright" unicode="&#x2019;" horiz-adv-x="234" 
d="M70 445l43 142h-51v123h122v-124l-57 -141h-57z" />
    <glyph glyph-name="bullet" unicode="&#x2022;" horiz-adv-x="420" 
d="M210 166q-56 0 -96 40t-40 96t40 96t96 40t96 -40t40 -96t-40 -96t-96 -40z" />
    <glyph glyph-name="CR" horiz-adv-x="250" 
 />
    <glyph glyph-name="uni2009" horiz-adv-x="50" 
 />
    <glyph glyph-name="fraction" horiz-adv-x="180" 
d="M-199 0l500 710h80l-500 -710h-80z" />
    <glyph glyph-name="zero.numr" horiz-adv-x="507" 
d="M253 282q-91 0 -154 63t-63 154t63 154t154 63t154.5 -63t63.5 -154t-63.5 -154t-154.5 -63zM253 345q65 0 107 44.5t42 109.5t-42 109.5t-107 44.5t-106 -44t-41 -110q0 -65 41 -109.5t106 -44.5z" />
    <glyph glyph-name="zero.dnom" horiz-adv-x="507" 
d="M253 -5q-91 0 -154 63t-63 154t63 154t154 63t154.5 -63t63.5 -154t-63.5 -154t-154.5 -63zM253 58q65 0 107 44.5t42 109.5t-42 109.5t-107 44.5t-106 -44t-41 -110q0 -65 41 -109.5t106 -44.5z" />
    </font>
</defs>
</svg>
